<svg xmlns:xlink="http://www.w3.org/1999/xlink" xmlns="http://www.w3.org/2000/svg" id="svg" height="4250" width="1470">
        <defs><marker id="arrow" refX="11" refY="6" markerWidth="13" markerHeight="13" stroke="none" orient="auto" markerUnits="userSpaceOnUse"><path d="M2,2 L2,11 L10,6 L2,2"></path></marker></defs>
      <g class="node" transform="translate(200,20)" id="line_0"><line x1="0" y1="0" x2="0" y2="4250" stroke="#AAAAAA"></line></g><g class="node" transform="translate(760,20)" id="line_1"><line x1="0" y1="0" x2="0" y2="4250" stroke="#AAAAAA"></line></g><g class="node" transform="translate(1320,20)" id="line_2"><line x1="0" y1="0" x2="0" y2="4250" stroke="#AAAAAA"></line></g><g class="packet" transform="translate(0,65)"><rect width="560" height="50" x="200" y="-25" fill="#FFFFFF" opacity="0.1" stroke="none"></rect><path class="link arrow" d="M200,0 L760,0" stroke-width="2px" fill="#FFFFFF" fill-opacity="0.5" stroke="#1F77B4" marker-end="url(#arrow)"></path><text class="frame-label" x="480" y="-7" text-anchor="middle" font-size="12">Hello Packet</text><text class="timestamp" x="10" y="4" font-size="9px" text-anchor="start">0.000000</text></g><g class="packet" transform="translate(0,115.12048192771084)"><rect width="560" height="50" x="760" y="-25" fill="#FFFFFF" opacity="0.1" stroke="none"></rect><path class="link arrow" d="M1320,0 L760,0" stroke-width="2px" fill="#FFFFFF" fill-opacity="0.5" stroke="#1F77B4" marker-end="url(#arrow)"></path><text class="frame-label" x="1040" y="-7" text-anchor="middle" font-size="12">Hello Packet</text><text class="timestamp" x="10" y="4" font-size="9px" text-anchor="start">31.155368</text></g><g class="packet" transform="translate(0,165.2409638554217)"><rect width="560" height="50" x="200" y="-25" fill="#FFFFFF" opacity="0.1" stroke="none"></rect><path class="link arrow" d="M200,0 L760,0" stroke-width="2px" fill="#FFFFFF" fill-opacity="0.5" stroke="#1F77B4" marker-end="url(#arrow)"></path><text class="frame-label" x="480" y="-7" text-anchor="middle" font-size="12">Hello Packet</text><text class="timestamp" x="10" y="4" font-size="9px" text-anchor="start">40.703665</text></g><g class="packet" transform="translate(0,215.36144578313252)"><rect width="560" height="50" x="760" y="-25" fill="#FFFFFF" opacity="0.1" stroke="none"></rect><path class="link arrow" d="M1320,0 L760,0" stroke-width="2px" fill="#FFFFFF" fill-opacity="0.5" stroke="#1F77B4" marker-end="url(#arrow)"></path><text class="frame-label" x="1040" y="-7" text-anchor="middle" font-size="12">Hello Packet</text><text class="timestamp" x="10" y="4" font-size="9px" text-anchor="start">40.718626</text></g><g class="packet" transform="translate(0,265.48192771084337)"><rect width="560" height="50" x="200" y="-25" fill="#FFFFFF" opacity="0.1" stroke="none"></rect><path class="link arrow" d="M200,0 L760,0" stroke-width="2px" fill="#FFFFFF" fill-opacity="0.5" stroke="#1F77B4" marker-end="url(#arrow)"></path><text class="frame-label" x="480" y="-7" text-anchor="middle" font-size="12">DB Description</text><text class="timestamp" x="10" y="4" font-size="9px" text-anchor="start">40.733585</text></g><g class="packet" transform="translate(0,315.6024096385542)"><rect width="560" height="50" x="200" y="-25" fill="#FFFFFF" opacity="0.1" stroke="none"></rect><path class="link arrow" d="M200,0 L760,0" stroke-width="2px" fill="#FFFFFF" fill-opacity="0.5" stroke="#1F77B4" marker-end="url(#arrow)"></path><text class="frame-label" x="480" y="-7" text-anchor="middle" font-size="12">Hello Packet</text><text class="timestamp" x="10" y="4" font-size="9px" text-anchor="start">40.733585</text></g><g class="packet" transform="translate(0,365.72289156626505)"><rect width="560" height="50" x="760" y="-25" fill="#FFFFFF" opacity="0.1" stroke="none"></rect><path class="link arrow" d="M1320,0 L760,0" stroke-width="2px" fill="#FFFFFF" fill-opacity="0.5" stroke="#1F77B4" marker-end="url(#arrow)"></path><text class="frame-label" x="1040" y="-7" text-anchor="middle" font-size="12">DB Description</text><text class="timestamp" x="10" y="4" font-size="9px" text-anchor="start">40.748545</text></g><g class="packet" transform="translate(0,415.8433734939759)"><rect width="560" height="50" x="200" y="-25" fill="#FFFFFF" opacity="0.1" stroke="none"></rect><path class="link arrow" d="M200,0 L760,0" stroke-width="2px" fill="#FFFFFF" fill-opacity="0.5" stroke="#1F77B4" marker-end="url(#arrow)"></path><text class="frame-label" x="480" y="-7" text-anchor="middle" font-size="12">DB Description</text><text class="timestamp" x="10" y="4" font-size="9px" text-anchor="start">40.763505</text></g><g class="packet" transform="translate(0,465.9638554216868)"><rect width="560" height="50" x="760" y="-25" fill="#FFFFFF" opacity="0.1" stroke="none"></rect><path class="link arrow" d="M1320,0 L760,0" stroke-width="2px" fill="#FFFFFF" fill-opacity="0.5" stroke="#1F77B4" marker-end="url(#arrow)"></path><text class="frame-label" x="1040" y="-7" text-anchor="middle" font-size="12">DB Description</text><text class="timestamp" x="10" y="4" font-size="9px" text-anchor="start">40.778465</text></g><g class="packet" transform="translate(0,516.0843373493976)"><rect width="560" height="50" x="200" y="-25" fill="#FFFFFF" opacity="0.1" stroke="none"></rect><path class="link arrow" d="M200,0 L760,0" stroke-width="2px" fill="#FFFFFF" fill-opacity="0.5" stroke="#1F77B4" marker-end="url(#arrow)"></path><text class="frame-label" x="480" y="-7" text-anchor="middle" font-size="12">DB Description</text><text class="timestamp" x="10" y="4" font-size="9px" text-anchor="start">40.793426</text></g><g class="packet" transform="translate(0,566.2048192771084)"><rect width="560" height="50" x="760" y="-25" fill="#FFFFFF" opacity="0.1" stroke="none"></rect><path class="link arrow" d="M1320,0 L760,0" stroke-width="2px" fill="#FFFFFF" fill-opacity="0.5" stroke="#1F77B4" marker-end="url(#arrow)"></path><text class="frame-label" x="1040" y="-7" text-anchor="middle" font-size="12">DB Description</text><text class="timestamp" x="10" y="4" font-size="9px" text-anchor="start">40.808385</text></g><g class="packet" transform="translate(0,616.3253012048193)"><rect width="560" height="50" x="760" y="-25" fill="#FFFFFF" opacity="0.1" stroke="none"></rect><path class="link arrow" d="M1320,0 L760,0" stroke-width="2px" fill="#FFFFFF" fill-opacity="0.5" stroke="#1F77B4" marker-end="url(#arrow)"></path><text class="frame-label" x="1040" y="-7" text-anchor="middle" font-size="12">LS Request</text><text class="timestamp" x="10" y="4" font-size="9px" text-anchor="start">40.808385</text></g><g class="packet" transform="translate(0,666.4457831325301)"><rect width="560" height="50" x="200" y="-25" fill="#FFFFFF" opacity="0.1" stroke="none"></rect><path class="link arrow" d="M200,0 L760,0" stroke-width="2px" fill="#FFFFFF" fill-opacity="0.5" stroke="#1F77B4" marker-end="url(#arrow)"></path><text class="frame-label" x="480" y="-7" text-anchor="middle" font-size="12">LS Request</text><text class="timestamp" x="10" y="4" font-size="9px" text-anchor="start">40.823345</text></g><g class="packet" transform="translate(0,716.566265060241)"><rect width="560" height="50" x="200" y="-25" fill="#FFFFFF" opacity="0.1" stroke="none"></rect><path class="link arrow" d="M200,0 L760,0" stroke-width="2px" fill="#FFFFFF" fill-opacity="0.5" stroke="#1F77B4" marker-end="url(#arrow)"></path><text class="frame-label" x="480" y="-7" text-anchor="middle" font-size="12">DB Description</text><text class="timestamp" x="10" y="4" font-size="9px" text-anchor="start">40.823345</text></g><g class="packet" transform="translate(0,766.6867469879518)"><rect width="560" height="50" x="200" y="-25" fill="#FFFFFF" opacity="0.1" stroke="none"></rect><path class="link arrow" d="M200,0 L760,0" stroke-width="2px" fill="#FFFFFF" fill-opacity="0.5" stroke="#1F77B4" marker-end="url(#arrow)"></path><text class="frame-label" x="480" y="-7" text-anchor="middle" font-size="12">LS Update</text><text class="timestamp" x="10" y="4" font-size="9px" text-anchor="start">40.838309</text></g><g class="packet" transform="translate(0,816.8072289156627)"><rect width="560" height="50" x="760" y="-25" fill="#FFFFFF" opacity="0.1" stroke="none"></rect><path class="link arrow" d="M1320,0 L760,0" stroke-width="2px" fill="#FFFFFF" fill-opacity="0.5" stroke="#1F77B4" marker-end="url(#arrow)"></path><text class="frame-label" x="1040" y="-7" text-anchor="middle" font-size="12">LS Update</text><text class="timestamp" x="10" y="4" font-size="9px" text-anchor="start">40.838309</text></g><g class="packet" transform="translate(0,866.9277108433736)"><rect width="560" height="50" x="760" y="-25" fill="#FFFFFF" opacity="0.1" stroke="none"></rect><path class="link arrow" d="M1320,0 L760,0" stroke-width="2px" fill="#FFFFFF" fill-opacity="0.5" stroke="#1F77B4" marker-end="url(#arrow)"></path><text class="frame-label" x="1040" y="-7" text-anchor="middle" font-size="12">Hello Packet</text><text class="timestamp" x="10" y="4" font-size="9px" text-anchor="start">41.152975</text></g><g class="packet" transform="translate(0,917.0481927710842)"><rect width="560" height="50" x="200" y="-25" fill="#FFFFFF" opacity="0.1" stroke="none"></rect><path class="link arrow" d="M200,0 L760,0" stroke-width="2px" fill="#FFFFFF" fill-opacity="0.5" stroke="#1F77B4" marker-end="url(#arrow)"></path><text class="frame-label" x="480" y="-7" text-anchor="middle" font-size="12">LS Update</text><text class="timestamp" x="10" y="4" font-size="9px" text-anchor="start">41.212815</text></g><g class="packet" transform="translate(0,967.1686746987951)"><rect width="560" height="50" x="760" y="-25" fill="#FFFFFF" opacity="0.1" stroke="none"></rect><path class="link arrow" d="M1320,0 L760,0" stroke-width="2px" fill="#FFFFFF" fill-opacity="0.5" stroke="#1F77B4" marker-end="url(#arrow)"></path><text class="frame-label" x="1040" y="-7" text-anchor="middle" font-size="12">LS Update</text><text class="timestamp" x="10" y="4" font-size="9px" text-anchor="start">41.348451</text></g><g class="packet" transform="translate(0,1017.289156626506)"><rect width="560" height="50" x="200" y="-25" fill="#FFFFFF" opacity="0.1" stroke="none"></rect><path class="link arrow" d="M200,0 L760,0" stroke-width="2px" fill="#FFFFFF" fill-opacity="0.5" stroke="#1F77B4" marker-end="url(#arrow)"></path><text class="frame-label" x="480" y="-7" text-anchor="middle" font-size="12">LS Acknowledge</text><text class="timestamp" x="10" y="4" font-size="9px" text-anchor="start">43.348902</text></g><g class="packet" transform="translate(0,1067.4096385542168)"><rect width="560" height="50" x="760" y="-25" fill="#FFFFFF" opacity="0.1" stroke="none"></rect><path class="link arrow" d="M1320,0 L760,0" stroke-width="2px" fill="#FFFFFF" fill-opacity="0.5" stroke="#1F77B4" marker-end="url(#arrow)"></path><text class="frame-label" x="1040" y="-7" text-anchor="middle" font-size="12">LS Acknowledge</text><text class="timestamp" x="10" y="4" font-size="9px" text-anchor="start">43.348902</text></g><g class="packet" transform="translate(0,1117.5301204819277)"><rect width="560" height="50" x="200" y="-25" fill="#FFFFFF" opacity="0.1" stroke="none"></rect><path class="link arrow" d="M200,0 L760,0" stroke-width="2px" fill="#FFFFFF" fill-opacity="0.5" stroke="#1F77B4" marker-end="url(#arrow)"></path><text class="frame-label" x="480" y="-7" text-anchor="middle" font-size="12">Hello Packet</text><text class="timestamp" x="10" y="4" font-size="9px" text-anchor="start">50.702857</text></g><g class="packet" transform="translate(0,1167.6506024096386)"><rect width="560" height="50" x="760" y="-25" fill="#FFFFFF" opacity="0.1" stroke="none"></rect><path class="link arrow" d="M1320,0 L760,0" stroke-width="2px" fill="#FFFFFF" fill-opacity="0.5" stroke="#1F77B4" marker-end="url(#arrow)"></path><text class="frame-label" x="1040" y="-7" text-anchor="middle" font-size="12">Hello Packet</text><text class="timestamp" x="10" y="4" font-size="9px" text-anchor="start">51.151928</text></g><g class="packet" transform="translate(0,1217.7710843373495)"><rect width="560" height="50" x="200" y="-25" fill="#FFFFFF" opacity="0.1" stroke="none"></rect><path class="link arrow" d="M200,0 L760,0" stroke-width="2px" fill="#FFFFFF" fill-opacity="0.5" stroke="#1F77B4" marker-end="url(#arrow)"></path><text class="frame-label" x="480" y="-7" text-anchor="middle" font-size="12">Hello Packet</text><text class="timestamp" x="10" y="4" font-size="9px" text-anchor="start">60.715125</text></g><g class="packet" transform="translate(0,1267.8915662650602)"><rect width="560" height="50" x="760" y="-25" fill="#FFFFFF" opacity="0.1" stroke="none"></rect><path class="link arrow" d="M1320,0 L760,0" stroke-width="2px" fill="#FFFFFF" fill-opacity="0.5" stroke="#1F77B4" marker-end="url(#arrow)"></path><text class="frame-label" x="1040" y="-7" text-anchor="middle" font-size="12">Hello Packet</text><text class="timestamp" x="10" y="4" font-size="9px" text-anchor="start">61.152481</text></g><g class="packet" transform="translate(0,1318.012048192771)"><rect width="560" height="50" x="200" y="-25" fill="#FFFFFF" opacity="0.1" stroke="none"></rect><path class="link arrow" d="M200,0 L760,0" stroke-width="2px" fill="#FFFFFF" fill-opacity="0.5" stroke="#1F77B4" marker-end="url(#arrow)"></path><text class="frame-label" x="480" y="-7" text-anchor="middle" font-size="12">Hello Packet</text><text class="timestamp" x="10" y="4" font-size="9px" text-anchor="start">70.717073</text></g><g class="packet" transform="translate(0,1368.132530120482)"><rect width="560" height="50" x="760" y="-25" fill="#FFFFFF" opacity="0.1" stroke="none"></rect><path class="link arrow" d="M1320,0 L760,0" stroke-width="2px" fill="#FFFFFF" fill-opacity="0.5" stroke="#1F77B4" marker-end="url(#arrow)"></path><text class="frame-label" x="1040" y="-7" text-anchor="middle" font-size="12">Hello Packet</text><text class="timestamp" x="10" y="4" font-size="9px" text-anchor="start">71.167678</text></g><g class="packet" transform="translate(0,1418.2530120481927)"><rect width="560" height="50" x="200" y="-25" fill="#FFFFFF" opacity="0.1" stroke="none"></rect><path class="link arrow" d="M200,0 L760,0" stroke-width="2px" fill="#FFFFFF" fill-opacity="0.5" stroke="#1F77B4" marker-end="url(#arrow)"></path><text class="frame-label" x="480" y="-7" text-anchor="middle" font-size="12">Hello Packet</text><text class="timestamp" x="10" y="4" font-size="9px" text-anchor="start">80.716865</text></g><g class="packet" transform="translate(0,1468.3734939759036)"><rect width="560" height="50" x="760" y="-25" fill="#FFFFFF" opacity="0.1" stroke="none"></rect><path class="link arrow" d="M1320,0 L760,0" stroke-width="2px" fill="#FFFFFF" fill-opacity="0.5" stroke="#1F77B4" marker-end="url(#arrow)"></path><text class="frame-label" x="1040" y="-7" text-anchor="middle" font-size="12">Hello Packet</text><text class="timestamp" x="10" y="4" font-size="9px" text-anchor="start">81.151346</text></g><g class="packet" transform="translate(0,1518.4939759036145)"><rect width="560" height="50" x="200" y="-25" fill="#FFFFFF" opacity="0.1" stroke="none"></rect><path class="link arrow" d="M200,0 L760,0" stroke-width="2px" fill="#FFFFFF" fill-opacity="0.5" stroke="#1F77B4" marker-end="url(#arrow)"></path><text class="frame-label" x="480" y="-7" text-anchor="middle" font-size="12">Hello Packet</text><text class="timestamp" x="10" y="4" font-size="9px" text-anchor="start">90.704565</text></g><g class="packet" transform="translate(0,1568.6144578313254)"><rect width="560" height="50" x="760" y="-25" fill="#FFFFFF" opacity="0.1" stroke="none"></rect><path class="link arrow" d="M1320,0 L760,0" stroke-width="2px" fill="#FFFFFF" fill-opacity="0.5" stroke="#1F77B4" marker-end="url(#arrow)"></path><text class="frame-label" x="1040" y="-7" text-anchor="middle" font-size="12">Hello Packet</text><text class="timestamp" x="10" y="4" font-size="9px" text-anchor="start">91.154482</text></g><g class="packet" transform="translate(0,1618.7349397590363)"><rect width="560" height="50" x="200" y="-25" fill="#FFFFFF" opacity="0.1" stroke="none"></rect><path class="link arrow" d="M200,0 L760,0" stroke-width="2px" fill="#FFFFFF" fill-opacity="0.5" stroke="#1F77B4" marker-end="url(#arrow)"></path><text class="frame-label" x="480" y="-7" text-anchor="middle" font-size="12">Hello Packet</text><text class="timestamp" x="10" y="4" font-size="9px" text-anchor="start">100.706345</text></g><g class="packet" transform="translate(0,1668.8554216867471)"><rect width="560" height="50" x="760" y="-25" fill="#FFFFFF" opacity="0.1" stroke="none"></rect><path class="link arrow" d="M1320,0 L760,0" stroke-width="2px" fill="#FFFFFF" fill-opacity="0.5" stroke="#1F77B4" marker-end="url(#arrow)"></path><text class="frame-label" x="1040" y="-7" text-anchor="middle" font-size="12">Hello Packet</text><text class="timestamp" x="10" y="4" font-size="9px" text-anchor="start">101.158656</text></g><g class="packet" transform="translate(0,1718.9759036144578)"><rect width="560" height="50" x="200" y="-25" fill="#FFFFFF" opacity="0.1" stroke="none"></rect><path class="link arrow" d="M200,0 L760,0" stroke-width="2px" fill="#FFFFFF" fill-opacity="0.5" stroke="#1F77B4" marker-end="url(#arrow)"></path><text class="frame-label" x="480" y="-7" text-anchor="middle" font-size="12">Hello Packet</text><text class="timestamp" x="10" y="4" font-size="9px" text-anchor="start">110.715694</text></g><g class="packet" transform="translate(0,1769.0963855421685)"><rect width="560" height="50" x="760" y="-25" fill="#FFFFFF" opacity="0.1" stroke="none"></rect><path class="link arrow" d="M1320,0 L760,0" stroke-width="2px" fill="#FFFFFF" fill-opacity="0.5" stroke="#1F77B4" marker-end="url(#arrow)"></path><text class="frame-label" x="1040" y="-7" text-anchor="middle" font-size="12">Hello Packet</text><text class="timestamp" x="10" y="4" font-size="9px" text-anchor="start">111.151566</text></g><g class="packet" transform="translate(0,1819.2168674698796)"><rect width="560" height="50" x="200" y="-25" fill="#FFFFFF" opacity="0.1" stroke="none"></rect><path class="link arrow" d="M200,0 L760,0" stroke-width="2px" fill="#FFFFFF" fill-opacity="0.5" stroke="#1F77B4" marker-end="url(#arrow)"></path><text class="frame-label" x="480" y="-7" text-anchor="middle" font-size="12">Hello Packet</text><text class="timestamp" x="10" y="4" font-size="9px" text-anchor="start">120.716587</text></g><g class="packet" transform="translate(0,1869.3373493975903)"><rect width="560" height="50" x="200" y="-25" fill="#FFFFFF" opacity="0.1" stroke="none"></rect><path class="link arrow" d="M200,0 L760,0" stroke-width="2px" fill="#FFFFFF" fill-opacity="0.5" stroke="#1F77B4" marker-end="url(#arrow)"></path><text class="frame-label" x="480" y="-7" text-anchor="middle" font-size="12">Hello Packet</text><text class="timestamp" x="10" y="4" font-size="9px" text-anchor="start">130.724336</text></g><g class="packet" transform="translate(0,1919.4578313253012)"><rect width="560" height="50" x="200" y="-25" fill="#FFFFFF" opacity="0.1" stroke="none"></rect><path class="link arrow" d="M200,0 L760,0" stroke-width="2px" fill="#FFFFFF" fill-opacity="0.5" stroke="#1F77B4" marker-end="url(#arrow)"></path><text class="frame-label" x="480" y="-7" text-anchor="middle" font-size="12">Hello Packet</text><text class="timestamp" x="10" y="4" font-size="9px" text-anchor="start">140.714156</text></g><g class="packet" transform="translate(0,1969.578313253012)"><rect width="560" height="50" x="200" y="-25" fill="#FFFFFF" opacity="0.1" stroke="none"></rect><path class="link arrow" d="M200,0 L760,0" stroke-width="2px" fill="#FFFFFF" fill-opacity="0.5" stroke="#1F77B4" marker-end="url(#arrow)"></path><text class="frame-label" x="480" y="-7" text-anchor="middle" font-size="12">Hello Packet</text><text class="timestamp" x="10" y="4" font-size="9px" text-anchor="start">150.729122</text></g><g class="packet" transform="translate(0,2019.698795180723)"><rect width="560" height="50" x="760" y="-25" fill="#FFFFFF" opacity="0.1" stroke="none"></rect><path class="link arrow" d="M1320,0 L760,0" stroke-width="2px" fill="#FFFFFF" fill-opacity="0.5" stroke="#1F77B4" marker-end="url(#arrow)"></path><text class="frame-label" x="1040" y="-7" text-anchor="middle" font-size="12">Hello Packet</text><text class="timestamp" x="10" y="4" font-size="9px" text-anchor="start">151.179663</text></g><g class="packet" transform="translate(0,2069.8192771084337)"><rect width="560" height="50" x="200" y="-25" fill="#FFFFFF" opacity="0.1" stroke="none"></rect><path class="link arrow" d="M200,0 L760,0" stroke-width="2px" fill="#FFFFFF" fill-opacity="0.5" stroke="#1F77B4" marker-end="url(#arrow)"></path><text class="frame-label" x="480" y="-7" text-anchor="middle" font-size="12">Hello Packet</text><text class="timestamp" x="10" y="4" font-size="9px" text-anchor="start">160.768171</text></g><g class="packet" transform="translate(0,2119.9397590361446)"><rect width="560" height="50" x="760" y="-25" fill="#FFFFFF" opacity="0.1" stroke="none"></rect><path class="link arrow" d="M1320,0 L760,0" stroke-width="2px" fill="#FFFFFF" fill-opacity="0.5" stroke="#1F77B4" marker-end="url(#arrow)"></path><text class="frame-label" x="1040" y="-7" text-anchor="middle" font-size="12">Hello Packet</text><text class="timestamp" x="10" y="4" font-size="9px" text-anchor="start">160.783188</text></g><g class="packet" transform="translate(0,2170.0602409638554)"><rect width="560" height="50" x="200" y="-25" fill="#FFFFFF" opacity="0.1" stroke="none"></rect><path class="link arrow" d="M200,0 L760,0" stroke-width="2px" fill="#FFFFFF" fill-opacity="0.5" stroke="#1F77B4" marker-end="url(#arrow)"></path><text class="frame-label" x="480" y="-7" text-anchor="middle" font-size="12">DB Description</text><text class="timestamp" x="10" y="4" font-size="9px" text-anchor="start">160.798149</text></g><g class="packet" transform="translate(0,2220.1807228915663)"><rect width="560" height="50" x="200" y="-25" fill="#FFFFFF" opacity="0.1" stroke="none"></rect><path class="link arrow" d="M200,0 L760,0" stroke-width="2px" fill="#FFFFFF" fill-opacity="0.5" stroke="#1F77B4" marker-end="url(#arrow)"></path><text class="frame-label" x="480" y="-7" text-anchor="middle" font-size="12">Hello Packet</text><text class="timestamp" x="10" y="4" font-size="9px" text-anchor="start">160.798149</text></g><g class="packet" transform="translate(0,2270.3012048192772)"><rect width="560" height="50" x="760" y="-25" fill="#FFFFFF" opacity="0.1" stroke="none"></rect><path class="link arrow" d="M1320,0 L760,0" stroke-width="2px" fill="#FFFFFF" fill-opacity="0.5" stroke="#1F77B4" marker-end="url(#arrow)"></path><text class="frame-label" x="1040" y="-7" text-anchor="middle" font-size="12">DB Description</text><text class="timestamp" x="10" y="4" font-size="9px" text-anchor="start">160.814052</text></g><g class="packet" transform="translate(0,2320.4216867469877)"><rect width="560" height="50" x="200" y="-25" fill="#FFFFFF" opacity="0.1" stroke="none"></rect><path class="link arrow" d="M200,0 L760,0" stroke-width="2px" fill="#FFFFFF" fill-opacity="0.5" stroke="#1F77B4" marker-end="url(#arrow)"></path><text class="frame-label" x="480" y="-7" text-anchor="middle" font-size="12">DB Description</text><text class="timestamp" x="10" y="4" font-size="9px" text-anchor="start">160.829570</text></g><g class="packet" transform="translate(0,2370.542168674699)"><rect width="560" height="50" x="760" y="-25" fill="#FFFFFF" opacity="0.1" stroke="none"></rect><path class="link arrow" d="M1320,0 L760,0" stroke-width="2px" fill="#FFFFFF" fill-opacity="0.5" stroke="#1F77B4" marker-end="url(#arrow)"></path><text class="frame-label" x="1040" y="-7" text-anchor="middle" font-size="12">DB Description</text><text class="timestamp" x="10" y="4" font-size="9px" text-anchor="start">160.844530</text></g><g class="packet" transform="translate(0,2420.66265060241)"><rect width="560" height="50" x="200" y="-25" fill="#FFFFFF" opacity="0.1" stroke="none"></rect><path class="link arrow" d="M200,0 L760,0" stroke-width="2px" fill="#FFFFFF" fill-opacity="0.5" stroke="#1F77B4" marker-end="url(#arrow)"></path><text class="frame-label" x="480" y="-7" text-anchor="middle" font-size="12">DB Description</text><text class="timestamp" x="10" y="4" font-size="9px" text-anchor="start">160.859490</text></g><g class="packet" transform="translate(0,2470.7831325301204)"><rect width="560" height="50" x="760" y="-25" fill="#FFFFFF" opacity="0.1" stroke="none"></rect><path class="link arrow" d="M1320,0 L760,0" stroke-width="2px" fill="#FFFFFF" fill-opacity="0.5" stroke="#1F77B4" marker-end="url(#arrow)"></path><text class="frame-label" x="1040" y="-7" text-anchor="middle" font-size="12">DB Description</text><text class="timestamp" x="10" y="4" font-size="9px" text-anchor="start">160.874450</text></g><g class="packet" transform="translate(0,2520.9036144578313)"><rect width="560" height="50" x="760" y="-25" fill="#FFFFFF" opacity="0.1" stroke="none"></rect><path class="link arrow" d="M1320,0 L760,0" stroke-width="2px" fill="#FFFFFF" fill-opacity="0.5" stroke="#1F77B4" marker-end="url(#arrow)"></path><text class="frame-label" x="1040" y="-7" text-anchor="middle" font-size="12">LS Request</text><text class="timestamp" x="10" y="4" font-size="9px" text-anchor="start">160.874450</text></g><g class="packet" transform="translate(0,2571.024096385542)"><rect width="560" height="50" x="200" y="-25" fill="#FFFFFF" opacity="0.1" stroke="none"></rect><path class="link arrow" d="M200,0 L760,0" stroke-width="2px" fill="#FFFFFF" fill-opacity="0.5" stroke="#1F77B4" marker-end="url(#arrow)"></path><text class="frame-label" x="480" y="-7" text-anchor="middle" font-size="12">LS Request</text><text class="timestamp" x="10" y="4" font-size="9px" text-anchor="start">160.889419</text></g><g class="packet" transform="translate(0,2621.144578313253)"><rect width="560" height="50" x="200" y="-25" fill="#FFFFFF" opacity="0.1" stroke="none"></rect><path class="link arrow" d="M200,0 L760,0" stroke-width="2px" fill="#FFFFFF" fill-opacity="0.5" stroke="#1F77B4" marker-end="url(#arrow)"></path><text class="frame-label" x="480" y="-7" text-anchor="middle" font-size="12">DB Description</text><text class="timestamp" x="10" y="4" font-size="9px" text-anchor="start">160.889419</text></g><g class="packet" transform="translate(0,2671.265060240964)"><rect width="560" height="50" x="200" y="-25" fill="#FFFFFF" opacity="0.1" stroke="none"></rect><path class="link arrow" d="M200,0 L760,0" stroke-width="2px" fill="#FFFFFF" fill-opacity="0.5" stroke="#1F77B4" marker-end="url(#arrow)"></path><text class="frame-label" x="480" y="-7" text-anchor="middle" font-size="12">LS Update</text><text class="timestamp" x="10" y="4" font-size="9px" text-anchor="start">160.904378</text></g><g class="packet" transform="translate(0,2721.385542168675)"><rect width="560" height="50" x="760" y="-25" fill="#FFFFFF" opacity="0.1" stroke="none"></rect><path class="link arrow" d="M1320,0 L760,0" stroke-width="2px" fill="#FFFFFF" fill-opacity="0.5" stroke="#1F77B4" marker-end="url(#arrow)"></path><text class="frame-label" x="1040" y="-7" text-anchor="middle" font-size="12">LS Update</text><text class="timestamp" x="10" y="4" font-size="9px" text-anchor="start">160.904378</text></g><g class="packet" transform="translate(0,2771.5060240963853)"><rect width="560" height="50" x="760" y="-25" fill="#FFFFFF" opacity="0.1" stroke="none"></rect><path class="link arrow" d="M1320,0 L760,0" stroke-width="2px" fill="#FFFFFF" fill-opacity="0.5" stroke="#1F77B4" marker-end="url(#arrow)"></path><text class="frame-label" x="1040" y="-7" text-anchor="middle" font-size="12">Hello Packet</text><text class="timestamp" x="10" y="4" font-size="9px" text-anchor="start">161.189134</text></g><g class="packet" transform="translate(0,2821.6265060240967)"><rect width="560" height="50" x="200" y="-25" fill="#FFFFFF" opacity="0.1" stroke="none"></rect><path class="link arrow" d="M200,0 L760,0" stroke-width="2px" fill="#FFFFFF" fill-opacity="0.5" stroke="#1F77B4" marker-end="url(#arrow)"></path><text class="frame-label" x="480" y="-7" text-anchor="middle" font-size="12">LS Update</text><text class="timestamp" x="10" y="4" font-size="9px" text-anchor="start">161.278985</text></g><g class="packet" transform="translate(0,2871.746987951807)"><rect width="560" height="50" x="760" y="-25" fill="#FFFFFF" opacity="0.1" stroke="none"></rect><path class="link arrow" d="M1320,0 L760,0" stroke-width="2px" fill="#FFFFFF" fill-opacity="0.5" stroke="#1F77B4" marker-end="url(#arrow)"></path><text class="frame-label" x="1040" y="-7" text-anchor="middle" font-size="12">LS Update</text><text class="timestamp" x="10" y="4" font-size="9px" text-anchor="start">161.415191</text></g><g class="packet" transform="translate(0,2921.867469879518)"><rect width="560" height="50" x="760" y="-25" fill="#FFFFFF" opacity="0.1" stroke="none"></rect><path class="link arrow" d="M1320,0 L760,0" stroke-width="2px" fill="#FFFFFF" fill-opacity="0.5" stroke="#1F77B4" marker-end="url(#arrow)"></path><text class="frame-label" x="1040" y="-7" text-anchor="middle" font-size="12">LS Acknowledge</text><text class="timestamp" x="10" y="4" font-size="9px" text-anchor="start">163.410160</text></g><g class="packet" transform="translate(0,2971.987951807229)"><rect width="560" height="50" x="200" y="-25" fill="#FFFFFF" opacity="0.1" stroke="none"></rect><path class="link arrow" d="M200,0 L760,0" stroke-width="2px" fill="#FFFFFF" fill-opacity="0.5" stroke="#1F77B4" marker-end="url(#arrow)"></path><text class="frame-label" x="480" y="-7" text-anchor="middle" font-size="12">LS Acknowledge</text><text class="timestamp" x="10" y="4" font-size="9px" text-anchor="start">163.425158</text></g><g class="packet" transform="translate(0,3022.1084337349394)"><rect width="560" height="50" x="200" y="-25" fill="#FFFFFF" opacity="0.1" stroke="none"></rect><path class="link arrow" d="M200,0 L760,0" stroke-width="2px" fill="#FFFFFF" fill-opacity="0.5" stroke="#1F77B4" marker-end="url(#arrow)"></path><text class="frame-label" x="480" y="-7" text-anchor="middle" font-size="12">Hello Packet</text><text class="timestamp" x="10" y="4" font-size="9px" text-anchor="start">170.788426</text></g><g class="packet" transform="translate(0,3072.2289156626507)"><rect width="560" height="50" x="760" y="-25" fill="#FFFFFF" opacity="0.1" stroke="none"></rect><path class="link arrow" d="M1320,0 L760,0" stroke-width="2px" fill="#FFFFFF" fill-opacity="0.5" stroke="#1F77B4" marker-end="url(#arrow)"></path><text class="frame-label" x="1040" y="-7" text-anchor="middle" font-size="12">Hello Packet</text><text class="timestamp" x="10" y="4" font-size="9px" text-anchor="start">171.179902</text></g><g class="packet" transform="translate(0,3122.3493975903616)"><rect width="560" height="50" x="200" y="-25" fill="#FFFFFF" opacity="0.1" stroke="none"></rect><path class="link arrow" d="M200,0 L760,0" stroke-width="2px" fill="#FFFFFF" fill-opacity="0.5" stroke="#1F77B4" marker-end="url(#arrow)"></path><text class="frame-label" x="480" y="-7" text-anchor="middle" font-size="12">Hello Packet</text><text class="timestamp" x="10" y="4" font-size="9px" text-anchor="start">180.783867</text></g><g class="packet" transform="translate(0,3172.4698795180725)"><rect width="560" height="50" x="760" y="-25" fill="#FFFFFF" opacity="0.1" stroke="none"></rect><path class="link arrow" d="M1320,0 L760,0" stroke-width="2px" fill="#FFFFFF" fill-opacity="0.5" stroke="#1F77B4" marker-end="url(#arrow)"></path><text class="frame-label" x="1040" y="-7" text-anchor="middle" font-size="12">Hello Packet</text><text class="timestamp" x="10" y="4" font-size="9px" text-anchor="start">181.187730</text></g><g class="packet" transform="translate(0,3222.590361445783)"><rect width="560" height="50" x="200" y="-25" fill="#FFFFFF" opacity="0.1" stroke="none"></rect><path class="link arrow" d="M200,0 L760,0" stroke-width="2px" fill="#FFFFFF" fill-opacity="0.5" stroke="#1F77B4" marker-end="url(#arrow)"></path><text class="frame-label" x="480" y="-7" text-anchor="middle" font-size="12">Hello Packet</text><text class="timestamp" x="10" y="4" font-size="9px" text-anchor="start">190.776128</text></g><g class="packet" transform="translate(0,3272.7108433734943)"><rect width="560" height="50" x="760" y="-25" fill="#FFFFFF" opacity="0.1" stroke="none"></rect><path class="link arrow" d="M1320,0 L760,0" stroke-width="2px" fill="#FFFFFF" fill-opacity="0.5" stroke="#1F77B4" marker-end="url(#arrow)"></path><text class="frame-label" x="1040" y="-7" text-anchor="middle" font-size="12">Hello Packet</text><text class="timestamp" x="10" y="4" font-size="9px" text-anchor="start">191.180913</text></g><g class="packet" transform="translate(0,3322.8313253012047)"><rect width="560" height="50" x="200" y="-25" fill="#FFFFFF" opacity="0.1" stroke="none"></rect><path class="link arrow" d="M200,0 L760,0" stroke-width="2px" fill="#FFFFFF" fill-opacity="0.5" stroke="#1F77B4" marker-end="url(#arrow)"></path><text class="frame-label" x="480" y="-7" text-anchor="middle" font-size="12">Hello Packet</text><text class="timestamp" x="10" y="4" font-size="9px" text-anchor="start">200.786439</text></g><g class="packet" transform="translate(0,3372.9518072289156)"><rect width="560" height="50" x="760" y="-25" fill="#FFFFFF" opacity="0.1" stroke="none"></rect><path class="link arrow" d="M1320,0 L760,0" stroke-width="2px" fill="#FFFFFF" fill-opacity="0.5" stroke="#1F77B4" marker-end="url(#arrow)"></path><text class="frame-label" x="1040" y="-7" text-anchor="middle" font-size="12">Hello Packet</text><text class="timestamp" x="10" y="4" font-size="9px" text-anchor="start">201.180900</text></g><g class="packet" transform="translate(0,3423.0722891566265)"><rect width="560" height="50" x="200" y="-25" fill="#FFFFFF" opacity="0.1" stroke="none"></rect><path class="link arrow" d="M200,0 L760,0" stroke-width="2px" fill="#FFFFFF" fill-opacity="0.5" stroke="#1F77B4" marker-end="url(#arrow)"></path><text class="frame-label" x="480" y="-7" text-anchor="middle" font-size="12">Hello Packet</text><text class="timestamp" x="10" y="4" font-size="9px" text-anchor="start">210.790482</text></g><g class="packet" transform="translate(0,3473.192771084337)"><rect width="560" height="50" x="760" y="-25" fill="#FFFFFF" opacity="0.1" stroke="none"></rect><path class="link arrow" d="M1320,0 L760,0" stroke-width="2px" fill="#FFFFFF" fill-opacity="0.5" stroke="#1F77B4" marker-end="url(#arrow)"></path><text class="frame-label" x="1040" y="-7" text-anchor="middle" font-size="12">Hello Packet</text><text class="timestamp" x="10" y="4" font-size="9px" text-anchor="start">211.190934</text></g><g class="packet" transform="translate(0,3523.3132530120483)"><rect width="560" height="50" x="200" y="-25" fill="#FFFFFF" opacity="0.1" stroke="none"></rect><path class="link arrow" d="M200,0 L760,0" stroke-width="2px" fill="#FFFFFF" fill-opacity="0.5" stroke="#1F77B4" marker-end="url(#arrow)"></path><text class="frame-label" x="480" y="-7" text-anchor="middle" font-size="12">Hello Packet</text><text class="timestamp" x="10" y="4" font-size="9px" text-anchor="start">220.799988</text></g><g class="packet" transform="translate(0,3573.4337349397592)"><rect width="560" height="50" x="760" y="-25" fill="#FFFFFF" opacity="0.1" stroke="none"></rect><path class="link arrow" d="M1320,0 L760,0" stroke-width="2px" fill="#FFFFFF" fill-opacity="0.5" stroke="#1F77B4" marker-end="url(#arrow)"></path><text class="frame-label" x="1040" y="-7" text-anchor="middle" font-size="12">Hello Packet</text><text class="timestamp" x="10" y="4" font-size="9px" text-anchor="start">221.182507</text></g><g class="packet" transform="translate(0,3623.55421686747)"><rect width="560" height="50" x="200" y="-25" fill="#FFFFFF" opacity="0.1" stroke="none"></rect><path class="link arrow" d="M200,0 L760,0" stroke-width="2px" fill="#FFFFFF" fill-opacity="0.5" stroke="#1F77B4" marker-end="url(#arrow)"></path><text class="frame-label" x="480" y="-7" text-anchor="middle" font-size="12">Hello Packet</text><text class="timestamp" x="10" y="4" font-size="9px" text-anchor="start">230.796457</text></g><g class="packet" transform="translate(0,3673.6746987951806)"><rect width="560" height="50" x="760" y="-25" fill="#FFFFFF" opacity="0.1" stroke="none"></rect><path class="link arrow" d="M1320,0 L760,0" stroke-width="2px" fill="#FFFFFF" fill-opacity="0.5" stroke="#1F77B4" marker-end="url(#arrow)"></path><text class="frame-label" x="1040" y="-7" text-anchor="middle" font-size="12">Hello Packet</text><text class="timestamp" x="10" y="4" font-size="9px" text-anchor="start">231.187938</text></g><g class="packet" transform="translate(0,3723.7951807228915)"><rect width="560" height="50" x="200" y="-25" fill="#FFFFFF" opacity="0.1" stroke="none"></rect><path class="link arrow" d="M200,0 L760,0" stroke-width="2px" fill="#FFFFFF" fill-opacity="0.5" stroke="#1F77B4" marker-end="url(#arrow)"></path><text class="frame-label" x="480" y="-7" text-anchor="middle" font-size="12">Hello Packet</text><text class="timestamp" x="10" y="4" font-size="9px" text-anchor="start">240.799076</text></g><g class="packet" transform="translate(0,3773.9156626506024)"><rect width="560" height="50" x="760" y="-25" fill="#FFFFFF" opacity="0.1" stroke="none"></rect><path class="link arrow" d="M1320,0 L760,0" stroke-width="2px" fill="#FFFFFF" fill-opacity="0.5" stroke="#1F77B4" marker-end="url(#arrow)"></path><text class="frame-label" x="1040" y="-7" text-anchor="middle" font-size="12">Hello Packet</text><text class="timestamp" x="10" y="4" font-size="9px" text-anchor="start">241.188565</text></g><g class="packet" transform="translate(0,3824.0361445783133)"><rect width="560" height="50" x="200" y="-25" fill="#FFFFFF" opacity="0.1" stroke="none"></rect><path class="link arrow" d="M200,0 L760,0" stroke-width="2px" fill="#FFFFFF" fill-opacity="0.5" stroke="#1F77B4" marker-end="url(#arrow)"></path><text class="frame-label" x="480" y="-7" text-anchor="middle" font-size="12">Hello Packet</text><text class="timestamp" x="10" y="4" font-size="9px" text-anchor="start">250.793863</text></g><g class="packet" transform="translate(0,3874.156626506024)"><rect width="560" height="50" x="760" y="-25" fill="#FFFFFF" opacity="0.1" stroke="none"></rect><path class="link arrow" d="M1320,0 L760,0" stroke-width="2px" fill="#FFFFFF" fill-opacity="0.5" stroke="#1F77B4" marker-end="url(#arrow)"></path><text class="frame-label" x="1040" y="-7" text-anchor="middle" font-size="12">Hello Packet</text><text class="timestamp" x="10" y="4" font-size="9px" text-anchor="start">251.184816</text></g><g class="packet" transform="translate(0,3924.2771084337346)"><rect width="560" height="50" x="200" y="-25" fill="#FFFFFF" opacity="0.1" stroke="none"></rect><path class="link arrow" d="M200,0 L760,0" stroke-width="2px" fill="#FFFFFF" fill-opacity="0.5" stroke="#1F77B4" marker-end="url(#arrow)"></path><text class="frame-label" x="480" y="-7" text-anchor="middle" font-size="12">Hello Packet</text><text class="timestamp" x="10" y="4" font-size="9px" text-anchor="start">260.798512</text></g><g class="packet" transform="translate(0,3974.397590361446)"><rect width="560" height="50" x="760" y="-25" fill="#FFFFFF" opacity="0.1" stroke="none"></rect><path class="link arrow" d="M1320,0 L760,0" stroke-width="2px" fill="#FFFFFF" fill-opacity="0.5" stroke="#1F77B4" marker-end="url(#arrow)"></path><text class="frame-label" x="1040" y="-7" text-anchor="middle" font-size="12">Hello Packet</text><text class="timestamp" x="10" y="4" font-size="9px" text-anchor="start">261.187471</text></g><g class="packet" transform="translate(0,4024.5180722891564)"><rect width="560" height="50" x="200" y="-25" fill="#FFFFFF" opacity="0.1" stroke="none"></rect><path class="link arrow" d="M200,0 L760,0" stroke-width="2px" fill="#FFFFFF" fill-opacity="0.5" stroke="#1F77B4" marker-end="url(#arrow)"></path><text class="frame-label" x="480" y="-7" text-anchor="middle" font-size="12">Hello Packet</text><text class="timestamp" x="10" y="4" font-size="9px" text-anchor="start">270.793102</text></g><g class="packet" transform="translate(0,4074.6385542168678)"><rect width="560" height="50" x="760" y="-25" fill="#FFFFFF" opacity="0.1" stroke="none"></rect><path class="link arrow" d="M1320,0 L760,0" stroke-width="2px" fill="#FFFFFF" fill-opacity="0.5" stroke="#1F77B4" marker-end="url(#arrow)"></path><text class="frame-label" x="1040" y="-7" text-anchor="middle" font-size="12">Hello Packet</text><text class="timestamp" x="10" y="4" font-size="9px" text-anchor="start">271.199524</text></g><g class="packet" transform="translate(0,4124.759036144578)"><rect width="560" height="50" x="200" y="-25" fill="#FFFFFF" opacity="0.1" stroke="none"></rect><path class="link arrow" d="M200,0 L760,0" stroke-width="2px" fill="#FFFFFF" fill-opacity="0.5" stroke="#1F77B4" marker-end="url(#arrow)"></path><text class="frame-label" x="480" y="-7" text-anchor="middle" font-size="12">Hello Packet</text><text class="timestamp" x="10" y="4" font-size="9px" text-anchor="start">280.795010</text></g><g class="packet" transform="translate(0,4174.879518072289)"><rect width="560" height="50" x="760" y="-25" fill="#FFFFFF" opacity="0.1" stroke="none"></rect><path class="link arrow" d="M1320,0 L760,0" stroke-width="2px" fill="#FFFFFF" fill-opacity="0.5" stroke="#1F77B4" marker-end="url(#arrow)"></path><text class="frame-label" x="1040" y="-7" text-anchor="middle" font-size="12">Hello Packet</text><text class="timestamp" x="10" y="4" font-size="9px" text-anchor="start">281.201609</text></g></svg>