<svg xmlns:xlink="http://www.w3.org/1999/xlink" xmlns="http://www.w3.org/2000/svg" id="svg" height="4750" width="1470">
        <defs><marker id="arrow" refX="11" refY="6" markerWidth="13" markerHeight="13" stroke="none" orient="auto" markerUnits="userSpaceOnUse"><path d="M2,2 L2,11 L10,6 L2,2"></path></marker></defs>
      <g class="node" transform="translate(202,20)" id="line_0"><line x1="0" y1="0" x2="0" y2="4750" stroke="#AAAAAA"></line></g><g class="node" transform="translate(388,20)" id="line_1"><line x1="0" y1="0" x2="0" y2="4750" stroke="#AAAAAA"></line></g><g class="node" transform="translate(574,20)" id="line_2"><line x1="0" y1="0" x2="0" y2="4750" stroke="#AAAAAA"></line></g><g class="node" transform="translate(760,20)" id="line_3"><line x1="0" y1="0" x2="0" y2="4750" stroke="#AAAAAA"></line></g><g class="node" transform="translate(946,20)" id="line_4"><line x1="0" y1="0" x2="0" y2="4750" stroke="#AAAAAA"></line></g><g class="node" transform="translate(1132,20)" id="line_5"><line x1="0" y1="0" x2="0" y2="4750" stroke="#AAAAAA"></line></g><g class="node" transform="translate(1318,20)" id="line_6"><line x1="0" y1="0" x2="0" y2="4750" stroke="#AAAAAA"></line></g><g class="packet" transform="translate(0,65)"><rect width="186" height="50" x="202" y="-25" fill="#FFFFFF" opacity="0.1" stroke="none"></rect><path class="link arrow" d="M202,0 L388,0" stroke-width="2px" fill="#FFFFFF" fill-opacity="0.5" stroke="#1F77B4" marker-end="url(#arrow)"></path><text class="frame-label" x="295" y="-7" text-anchor="middle" font-size="12">Hello Packet</text><text class="timestamp" x="10" y="4" font-size="9px" text-anchor="start">0.000000</text></g><g class="packet" transform="translate(0,115.10752688172043)"><rect width="186" height="50" x="388" y="-25" fill="#FFFFFF" opacity="0.1" stroke="none"></rect><path class="link arrow" d="M574,0 L388,0" stroke-width="2px" fill="#FFFFFF" fill-opacity="0.5" stroke="#1F77B4" marker-end="url(#arrow)"></path><text class="frame-label" x="481" y="-7" text-anchor="middle" font-size="12">Hello Packet</text><text class="timestamp" x="10" y="4" font-size="9px" text-anchor="start">1.663948</text></g><g class="packet" transform="translate(0,165.21505376344086)"><rect width="372" height="50" x="388" y="-25" fill="#FFFFFF" opacity="0.1" stroke="none"></rect><path class="link arrow" d="M760,0 L388,0" stroke-width="2px" fill="#FFFFFF" fill-opacity="0.5" stroke="#1F77B4" marker-end="url(#arrow)"></path><text class="frame-label" x="574" y="-7" text-anchor="middle" font-size="12">Hello Packet</text><text class="timestamp" x="10" y="4" font-size="9px" text-anchor="start">3.584090</text></g><g class="packet" transform="translate(0,215.32258064516128)"><rect width="558" height="50" x="388" y="-25" fill="#FFFFFF" opacity="0.1" stroke="none"></rect><path class="link arrow" d="M946,0 L388,0" stroke-width="2px" fill="#FFFFFF" fill-opacity="0.5" stroke="#1F77B4" marker-end="url(#arrow)"></path><text class="frame-label" x="667" y="-7" text-anchor="middle" font-size="12">Hello Packet</text><text class="timestamp" x="10" y="4" font-size="9px" text-anchor="start">4.894103</text></g><g class="packet" transform="translate(0,265.4301075268817)"><rect width="744" height="50" x="388" y="-25" fill="#FFFFFF" opacity="0.1" stroke="none"></rect><path class="link arrow" d="M1132,0 L388,0" stroke-width="2px" fill="#FFFFFF" fill-opacity="0.5" stroke="#1F77B4" marker-end="url(#arrow)"></path><text class="frame-label" x="760" y="-7" text-anchor="middle" font-size="12">Hello Packet</text><text class="timestamp" x="10" y="4" font-size="9px" text-anchor="start">4.894132</text></g><g class="packet" transform="translate(0,315.5376344086022)"><rect width="930" height="50" x="388" y="-25" fill="#FFFFFF" opacity="0.1" stroke="none"></rect><path class="link arrow" d="M1318,0 L388,0" stroke-width="2px" fill="#FFFFFF" fill-opacity="0.5" stroke="#1F77B4" marker-end="url(#arrow)"></path><text class="frame-label" x="853" y="-7" text-anchor="middle" font-size="12">Hello Packet</text><text class="timestamp" x="10" y="4" font-size="9px" text-anchor="start">4.902121</text></g><g class="packet" transform="translate(0,365.64516129032256)"><rect width="186" height="50" x="202" y="-25" fill="#FFFFFF" opacity="0.1" stroke="none"></rect><path class="link arrow" d="M202,0 L388,0" stroke-width="2px" fill="#FFFFFF" fill-opacity="0.5" stroke="#1F77B4" marker-end="url(#arrow)"></path><text class="frame-label" x="295" y="-7" text-anchor="middle" font-size="12">Hello Packet</text><text class="timestamp" x="10" y="4" font-size="9px" text-anchor="start">10.006467</text></g><g class="packet" transform="translate(0,415.75268817204307)"><rect width="558" height="50" x="388" y="-25" fill="#FFFFFF" opacity="0.1" stroke="none"></rect><path class="link arrow" d="M946,0 L388,0" stroke-width="2px" fill="#FFFFFF" fill-opacity="0.5" stroke="#1F77B4" marker-end="url(#arrow)"></path><text class="frame-label" x="667" y="-7" text-anchor="middle" font-size="12">DB Description</text><text class="timestamp" x="10" y="4" font-size="9px" text-anchor="start">10.062426</text></g><g class="packet" transform="translate(0,465.86021505376345)"><rect width="186" height="50" x="202" y="-25" fill="#FFFFFF" opacity="0.1" stroke="none"></rect><path class="link arrow" d="M202,0 L388,0" stroke-width="2px" fill="#FFFFFF" fill-opacity="0.5" stroke="#1F77B4" marker-end="url(#arrow)"></path><text class="frame-label" x="295" y="-7" text-anchor="middle" font-size="12">DB Description</text><text class="timestamp" x="10" y="4" font-size="9px" text-anchor="start">10.110475</text></g><g class="packet" transform="translate(0,515.9677419354839)"><rect width="558" height="50" x="388" y="-25" fill="#FFFFFF" opacity="0.1" stroke="none"></rect><path class="link arrow" d="M946,0 L388,0" stroke-width="2px" fill="#FFFFFF" fill-opacity="0.5" stroke="#1F77B4" marker-end="url(#arrow)"></path><text class="frame-label" x="667" y="-7" text-anchor="middle" font-size="12">DB Description</text><text class="timestamp" x="10" y="4" font-size="9px" text-anchor="start">10.166431</text></g><g class="packet" transform="translate(0,566.0752688172043)"><rect width="186" height="50" x="202" y="-25" fill="#FFFFFF" opacity="0.1" stroke="none"></rect><path class="link arrow" d="M202,0 L388,0" stroke-width="2px" fill="#FFFFFF" fill-opacity="0.5" stroke="#1F77B4" marker-end="url(#arrow)"></path><text class="frame-label" x="295" y="-7" text-anchor="middle" font-size="12">DB Description</text><text class="timestamp" x="10" y="4" font-size="9px" text-anchor="start">10.214484</text></g><g class="packet" transform="translate(0,616.1827956989248)"><rect width="186" height="50" x="202" y="-25" fill="#FFFFFF" opacity="0.1" stroke="none"></rect><path class="link arrow" d="M202,0 L388,0" stroke-width="2px" fill="#FFFFFF" fill-opacity="0.5" stroke="#1F77B4" marker-end="url(#arrow)"></path><text class="frame-label" x="295" y="-7" text-anchor="middle" font-size="12">LS Request</text><text class="timestamp" x="10" y="4" font-size="9px" text-anchor="start">10.214527</text></g><g class="packet" transform="translate(0,666.2903225806451)"><rect width="558" height="50" x="388" y="-25" fill="#FFFFFF" opacity="0.1" stroke="none"></rect><path class="link arrow" d="M946,0 L388,0" stroke-width="2px" fill="#FFFFFF" fill-opacity="0.5" stroke="#1F77B4" marker-end="url(#arrow)"></path><text class="frame-label" x="667" y="-7" text-anchor="middle" font-size="12">DB Description</text><text class="timestamp" x="10" y="4" font-size="9px" text-anchor="start">10.230435</text></g><g class="packet" transform="translate(0,716.3978494623655)"><rect width="558" height="50" x="388" y="-25" fill="#FFFFFF" opacity="0.1" stroke="none"></rect><path class="link arrow" d="M946,0 L388,0" stroke-width="2px" fill="#FFFFFF" fill-opacity="0.5" stroke="#1F77B4" marker-end="url(#arrow)"></path><text class="frame-label" x="667" y="-7" text-anchor="middle" font-size="12">LS Request</text><text class="timestamp" x="10" y="4" font-size="9px" text-anchor="start">10.230468</text></g><g class="packet" transform="translate(0,766.5053763440861)"><rect width="558" height="50" x="388" y="-25" fill="#FFFFFF" opacity="0.1" stroke="none"></rect><path class="link arrow" d="M946,0 L388,0" stroke-width="2px" fill="#FFFFFF" fill-opacity="0.5" stroke="#1F77B4" marker-end="url(#arrow)"></path><text class="frame-label" x="667" y="-7" text-anchor="middle" font-size="12">LS Update</text><text class="timestamp" x="10" y="4" font-size="9px" text-anchor="start">10.238439</text></g><g class="packet" transform="translate(0,816.6129032258065)"><rect width="186" height="50" x="202" y="-25" fill="#FFFFFF" opacity="0.1" stroke="none"></rect><path class="link arrow" d="M202,0 L388,0" stroke-width="2px" fill="#FFFFFF" fill-opacity="0.5" stroke="#1F77B4" marker-end="url(#arrow)"></path><text class="frame-label" x="295" y="-7" text-anchor="middle" font-size="12">DB Description</text><text class="timestamp" x="10" y="4" font-size="9px" text-anchor="start">10.326493</text></g><g class="packet" transform="translate(0,866.7204301075269)"><rect width="186" height="50" x="202" y="-25" fill="#FFFFFF" opacity="0.1" stroke="none"></rect><path class="link arrow" d="M202,0 L388,0" stroke-width="2px" fill="#FFFFFF" fill-opacity="0.5" stroke="#1F77B4" marker-end="url(#arrow)"></path><text class="frame-label" x="295" y="-7" text-anchor="middle" font-size="12">LS Update</text><text class="timestamp" x="10" y="4" font-size="9px" text-anchor="start">10.326533</text></g><g class="packet" transform="translate(0,916.8279569892474)"><rect width="558" height="50" x="388" y="-25" fill="#FFFFFF" opacity="0.1" stroke="none"></rect><path class="link arrow" d="M946,0 L388,0" stroke-width="2px" fill="#FFFFFF" fill-opacity="0.5" stroke="#1F77B4" marker-end="url(#arrow)"></path><text class="frame-label" x="667" y="-7" text-anchor="middle" font-size="12">DB Description</text><text class="timestamp" x="10" y="4" font-size="9px" text-anchor="start">10.454448</text></g><g class="packet" transform="translate(0,966.9354838709677)"><rect width="558" height="50" x="388" y="-25" fill="#FFFFFF" opacity="0.1" stroke="none"></rect><path class="link arrow" d="M946,0 L388,0" stroke-width="2px" fill="#FFFFFF" fill-opacity="0.5" stroke="#1F77B4" marker-end="url(#arrow)"></path><text class="frame-label" x="667" y="-7" text-anchor="middle" font-size="12">LS Update</text><text class="timestamp" x="10" y="4" font-size="9px" text-anchor="start">10.934478</text></g><g class="packet" transform="translate(0,1017.0430107526882)"><rect width="186" height="50" x="202" y="-25" fill="#FFFFFF" opacity="0.1" stroke="none"></rect><path class="link arrow" d="M202,0 L388,0" stroke-width="2px" fill="#FFFFFF" fill-opacity="0.5" stroke="#1F77B4" marker-end="url(#arrow)"></path><text class="frame-label" x="295" y="-7" text-anchor="middle" font-size="12">LS Update</text><text class="timestamp" x="10" y="4" font-size="9px" text-anchor="start">11.022525</text></g><g class="packet" transform="translate(0,1067.1505376344087)"><rect width="186" height="50" x="388" y="-25" fill="#FFFFFF" opacity="0.1" stroke="none"></rect><path class="link arrow" d="M574,0 L388,0" stroke-width="2px" fill="#FFFFFF" fill-opacity="0.5" stroke="#1F77B4" marker-end="url(#arrow)"></path><text class="frame-label" x="481" y="-7" text-anchor="middle" font-size="12">Hello Packet</text><text class="timestamp" x="10" y="4" font-size="9px" text-anchor="start">11.696620</text></g><g class="packet" transform="translate(0,1117.258064516129)"><rect width="744" height="50" x="388" y="-25" fill="#FFFFFF" opacity="0.1" stroke="none"></rect><path class="link arrow" d="M1132,0 L388,0" stroke-width="2px" fill="#FFFFFF" fill-opacity="0.5" stroke="#1F77B4" marker-end="url(#arrow)"></path><text class="frame-label" x="760" y="-7" text-anchor="middle" font-size="12">DB Description</text><text class="timestamp" x="10" y="4" font-size="9px" text-anchor="start">11.726522</text></g><g class="packet" transform="translate(0,1167.3655913978496)"><rect width="186" height="50" x="388" y="-25" fill="#FFFFFF" opacity="0.1" stroke="none"></rect><path class="link arrow" d="M574,0 L388,0" stroke-width="2px" fill="#FFFFFF" fill-opacity="0.5" stroke="#1F77B4" marker-end="url(#arrow)"></path><text class="frame-label" x="481" y="-7" text-anchor="middle" font-size="12">DB Description</text><text class="timestamp" x="10" y="4" font-size="9px" text-anchor="start">11.776599</text></g><g class="packet" transform="translate(0,1217.47311827957)"><rect width="744" height="50" x="388" y="-25" fill="#FFFFFF" opacity="0.1" stroke="none"></rect><path class="link arrow" d="M1132,0 L388,0" stroke-width="2px" fill="#FFFFFF" fill-opacity="0.5" stroke="#1F77B4" marker-end="url(#arrow)"></path><text class="frame-label" x="760" y="-7" text-anchor="middle" font-size="12">DB Description</text><text class="timestamp" x="10" y="4" font-size="9px" text-anchor="start">11.830524</text></g><g class="packet" transform="translate(0,1267.5806451612902)"><rect width="186" height="50" x="388" y="-25" fill="#FFFFFF" opacity="0.1" stroke="none"></rect><path class="link arrow" d="M574,0 L388,0" stroke-width="2px" fill="#FFFFFF" fill-opacity="0.5" stroke="#1F77B4" marker-end="url(#arrow)"></path><text class="frame-label" x="481" y="-7" text-anchor="middle" font-size="12">DB Description</text><text class="timestamp" x="10" y="4" font-size="9px" text-anchor="start">11.880609</text></g><g class="packet" transform="translate(0,1317.6881720430106)"><rect width="186" height="50" x="388" y="-25" fill="#FFFFFF" opacity="0.1" stroke="none"></rect><path class="link arrow" d="M574,0 L388,0" stroke-width="2px" fill="#FFFFFF" fill-opacity="0.5" stroke="#1F77B4" marker-end="url(#arrow)"></path><text class="frame-label" x="481" y="-7" text-anchor="middle" font-size="12">LS Request</text><text class="timestamp" x="10" y="4" font-size="9px" text-anchor="start">11.880637</text></g><g class="packet" transform="translate(0,1367.795698924731)"><rect width="744" height="50" x="388" y="-25" fill="#FFFFFF" opacity="0.1" stroke="none"></rect><path class="link arrow" d="M1132,0 L388,0" stroke-width="2px" fill="#FFFFFF" fill-opacity="0.5" stroke="#1F77B4" marker-end="url(#arrow)"></path><text class="frame-label" x="760" y="-7" text-anchor="middle" font-size="12">DB Description</text><text class="timestamp" x="10" y="4" font-size="9px" text-anchor="start">11.958534</text></g><g class="packet" transform="translate(0,1417.903225806452)"><rect width="744" height="50" x="388" y="-25" fill="#FFFFFF" opacity="0.1" stroke="none"></rect><path class="link arrow" d="M1132,0 L388,0" stroke-width="2px" fill="#FFFFFF" fill-opacity="0.5" stroke="#1F77B4" marker-end="url(#arrow)"></path><text class="frame-label" x="760" y="-7" text-anchor="middle" font-size="12">LS Request</text><text class="timestamp" x="10" y="4" font-size="9px" text-anchor="start">11.958561</text></g><g class="packet" transform="translate(0,1468.0107526881723)"><rect width="744" height="50" x="388" y="-25" fill="#FFFFFF" opacity="0.1" stroke="none"></rect><path class="link arrow" d="M1132,0 L388,0" stroke-width="2px" fill="#FFFFFF" fill-opacity="0.5" stroke="#1F77B4" marker-end="url(#arrow)"></path><text class="frame-label" x="760" y="-7" text-anchor="middle" font-size="12">LS Update</text><text class="timestamp" x="10" y="4" font-size="9px" text-anchor="start">11.966534</text></g><g class="packet" transform="translate(0,1518.1182795698926)"><rect width="186" height="50" x="388" y="-25" fill="#FFFFFF" opacity="0.1" stroke="none"></rect><path class="link arrow" d="M574,0 L388,0" stroke-width="2px" fill="#FFFFFF" fill-opacity="0.5" stroke="#1F77B4" marker-end="url(#arrow)"></path><text class="frame-label" x="481" y="-7" text-anchor="middle" font-size="12">DB Description</text><text class="timestamp" x="10" y="4" font-size="9px" text-anchor="start">11.968618</text></g><g class="packet" transform="translate(0,1568.225806451613)"><rect width="186" height="50" x="388" y="-25" fill="#FFFFFF" opacity="0.1" stroke="none"></rect><path class="link arrow" d="M574,0 L388,0" stroke-width="2px" fill="#FFFFFF" fill-opacity="0.5" stroke="#1F77B4" marker-end="url(#arrow)"></path><text class="frame-label" x="481" y="-7" text-anchor="middle" font-size="12">LS Update</text><text class="timestamp" x="10" y="4" font-size="9px" text-anchor="start">11.968639</text></g><g class="packet" transform="translate(0,1618.3333333333333)"><rect width="744" height="50" x="388" y="-25" fill="#FFFFFF" opacity="0.1" stroke="none"></rect><path class="link arrow" d="M1132,0 L388,0" stroke-width="2px" fill="#FFFFFF" fill-opacity="0.5" stroke="#1F77B4" marker-end="url(#arrow)"></path><text class="frame-label" x="760" y="-7" text-anchor="middle" font-size="12">DB Description</text><text class="timestamp" x="10" y="4" font-size="9px" text-anchor="start">12.054541</text></g><g class="packet" transform="translate(0,1668.440860215054)"><rect width="558" height="50" x="388" y="-25" fill="#FFFFFF" opacity="0.1" stroke="none"></rect><path class="link arrow" d="M946,0 L388,0" stroke-width="2px" fill="#FFFFFF" fill-opacity="0.5" stroke="#1F77B4" marker-end="url(#arrow)"></path><text class="frame-label" x="667" y="-7" text-anchor="middle" font-size="12">LS Update</text><text class="timestamp" x="10" y="4" font-size="9px" text-anchor="start">12.054571</text></g><g class="packet" transform="translate(0,1718.5483870967744)"><rect width="186" height="50" x="388" y="-25" fill="#FFFFFF" opacity="0.1" stroke="none"></rect><path class="link arrow" d="M574,0 L388,0" stroke-width="2px" fill="#FFFFFF" fill-opacity="0.5" stroke="#1F77B4" marker-end="url(#arrow)"></path><text class="frame-label" x="481" y="-7" text-anchor="middle" font-size="12">LS Update</text><text class="timestamp" x="10" y="4" font-size="9px" text-anchor="start">12.590615</text></g><g class="packet" transform="translate(0,1768.6559139784947)"><rect width="186" height="50" x="202" y="-25" fill="#FFFFFF" opacity="0.1" stroke="none"></rect><path class="link arrow" d="M202,0 L388,0" stroke-width="2px" fill="#FFFFFF" fill-opacity="0.5" stroke="#1F77B4" marker-end="url(#arrow)"></path><text class="frame-label" x="295" y="-7" text-anchor="middle" font-size="12">LS Acknowledge</text><text class="timestamp" x="10" y="4" font-size="9px" text-anchor="start">12.798641</text></g><g class="packet" transform="translate(0,1818.763440860215)"><rect width="558" height="50" x="388" y="-25" fill="#FFFFFF" opacity="0.1" stroke="none"></rect><path class="link arrow" d="M946,0 L388,0" stroke-width="2px" fill="#FFFFFF" fill-opacity="0.5" stroke="#1F77B4" marker-end="url(#arrow)"></path><text class="frame-label" x="667" y="-7" text-anchor="middle" font-size="12">LS Acknowledge</text><text class="timestamp" x="10" y="4" font-size="9px" text-anchor="start">12.966590</text></g><g class="packet" transform="translate(0,1868.8709677419354)"><rect width="372" height="50" x="388" y="-25" fill="#FFFFFF" opacity="0.1" stroke="none"></rect><path class="link arrow" d="M760,0 L388,0" stroke-width="2px" fill="#FFFFFF" fill-opacity="0.5" stroke="#1F77B4" marker-end="url(#arrow)"></path><text class="frame-label" x="574" y="-7" text-anchor="middle" font-size="12">Hello Packet</text><text class="timestamp" x="10" y="4" font-size="9px" text-anchor="start">13.574690</text></g><g class="packet" transform="translate(0,1918.978494623656)"><rect width="930" height="50" x="388" y="-25" fill="#FFFFFF" opacity="0.1" stroke="none"></rect><path class="link arrow" d="M1318,0 L388,0" stroke-width="2px" fill="#FFFFFF" fill-opacity="0.5" stroke="#1F77B4" marker-end="url(#arrow)"></path><text class="frame-label" x="853" y="-7" text-anchor="middle" font-size="12">DB Description</text><text class="timestamp" x="10" y="4" font-size="9px" text-anchor="start">13.638633</text></g><g class="packet" transform="translate(0,1969.0860215053765)"><rect width="372" height="50" x="388" y="-25" fill="#FFFFFF" opacity="0.1" stroke="none"></rect><path class="link arrow" d="M760,0 L388,0" stroke-width="2px" fill="#FFFFFF" fill-opacity="0.5" stroke="#1F77B4" marker-end="url(#arrow)"></path><text class="frame-label" x="574" y="-7" text-anchor="middle" font-size="12">DB Description</text><text class="timestamp" x="10" y="4" font-size="9px" text-anchor="start">13.686672</text></g><g class="packet" transform="translate(0,2019.1935483870968)"><rect width="930" height="50" x="388" y="-25" fill="#FFFFFF" opacity="0.1" stroke="none"></rect><path class="link arrow" d="M1318,0 L388,0" stroke-width="2px" fill="#FFFFFF" fill-opacity="0.5" stroke="#1F77B4" marker-end="url(#arrow)"></path><text class="frame-label" x="853" y="-7" text-anchor="middle" font-size="12">DB Description</text><text class="timestamp" x="10" y="4" font-size="9px" text-anchor="start">13.734636</text></g><g class="packet" transform="translate(0,2069.3010752688174)"><rect width="372" height="50" x="388" y="-25" fill="#FFFFFF" opacity="0.1" stroke="none"></rect><path class="link arrow" d="M760,0 L388,0" stroke-width="2px" fill="#FFFFFF" fill-opacity="0.5" stroke="#1F77B4" marker-end="url(#arrow)"></path><text class="frame-label" x="574" y="-7" text-anchor="middle" font-size="12">DB Description</text><text class="timestamp" x="10" y="4" font-size="9px" text-anchor="start">13.782686</text></g><g class="packet" transform="translate(0,2119.4086021505377)"><rect width="372" height="50" x="388" y="-25" fill="#FFFFFF" opacity="0.1" stroke="none"></rect><path class="link arrow" d="M760,0 L388,0" stroke-width="2px" fill="#FFFFFF" fill-opacity="0.5" stroke="#1F77B4" marker-end="url(#arrow)"></path><text class="frame-label" x="574" y="-7" text-anchor="middle" font-size="12">LS Request</text><text class="timestamp" x="10" y="4" font-size="9px" text-anchor="start">13.782725</text></g><g class="packet" transform="translate(0,2169.516129032258)"><rect width="930" height="50" x="388" y="-25" fill="#FFFFFF" opacity="0.1" stroke="none"></rect><path class="link arrow" d="M1318,0 L388,0" stroke-width="2px" fill="#FFFFFF" fill-opacity="0.5" stroke="#1F77B4" marker-end="url(#arrow)"></path><text class="frame-label" x="853" y="-7" text-anchor="middle" font-size="12">DB Description</text><text class="timestamp" x="10" y="4" font-size="9px" text-anchor="start">13.838650</text></g><g class="packet" transform="translate(0,2219.6236559139784)"><rect width="930" height="50" x="388" y="-25" fill="#FFFFFF" opacity="0.1" stroke="none"></rect><path class="link arrow" d="M1318,0 L388,0" stroke-width="2px" fill="#FFFFFF" fill-opacity="0.5" stroke="#1F77B4" marker-end="url(#arrow)"></path><text class="frame-label" x="853" y="-7" text-anchor="middle" font-size="12">LS Request</text><text class="timestamp" x="10" y="4" font-size="9px" text-anchor="start">13.838690</text></g><g class="packet" transform="translate(0,2269.7311827956987)"><rect width="930" height="50" x="388" y="-25" fill="#FFFFFF" opacity="0.1" stroke="none"></rect><path class="link arrow" d="M1318,0 L388,0" stroke-width="2px" fill="#FFFFFF" fill-opacity="0.5" stroke="#1F77B4" marker-end="url(#arrow)"></path><text class="frame-label" x="853" y="-7" text-anchor="middle" font-size="12">LS Update</text><text class="timestamp" x="10" y="4" font-size="9px" text-anchor="start">13.846650</text></g><g class="packet" transform="translate(0,2319.8387096774195)"><rect width="372" height="50" x="388" y="-25" fill="#FFFFFF" opacity="0.1" stroke="none"></rect><path class="link arrow" d="M760,0 L388,0" stroke-width="2px" fill="#FFFFFF" fill-opacity="0.5" stroke="#1F77B4" marker-end="url(#arrow)"></path><text class="frame-label" x="574" y="-7" text-anchor="middle" font-size="12">DB Description</text><text class="timestamp" x="10" y="4" font-size="9px" text-anchor="start">13.894724</text></g><g class="packet" transform="translate(0,2369.94623655914)"><rect width="372" height="50" x="388" y="-25" fill="#FFFFFF" opacity="0.1" stroke="none"></rect><path class="link arrow" d="M760,0 L388,0" stroke-width="2px" fill="#FFFFFF" fill-opacity="0.5" stroke="#1F77B4" marker-end="url(#arrow)"></path><text class="frame-label" x="574" y="-7" text-anchor="middle" font-size="12">LS Update</text><text class="timestamp" x="10" y="4" font-size="9px" text-anchor="start">13.894775</text></g><g class="packet" transform="translate(0,2420.05376344086)"><rect width="930" height="50" x="388" y="-25" fill="#FFFFFF" opacity="0.1" stroke="none"></rect><path class="link arrow" d="M1318,0 L388,0" stroke-width="2px" fill="#FFFFFF" fill-opacity="0.5" stroke="#1F77B4" marker-end="url(#arrow)"></path><text class="frame-label" x="853" y="-7" text-anchor="middle" font-size="12">DB Description</text><text class="timestamp" x="10" y="4" font-size="9px" text-anchor="start">13.950648</text></g><g class="packet" transform="translate(0,2470.1612903225805)"><rect width="744" height="50" x="388" y="-25" fill="#FFFFFF" opacity="0.1" stroke="none"></rect><path class="link arrow" d="M1132,0 L388,0" stroke-width="2px" fill="#FFFFFF" fill-opacity="0.5" stroke="#1F77B4" marker-end="url(#arrow)"></path><text class="frame-label" x="760" y="-7" text-anchor="middle" font-size="12">LS Update</text><text class="timestamp" x="10" y="4" font-size="9px" text-anchor="start">13.950696</text></g><g class="packet" transform="translate(0,2520.2688172043013)"><rect width="558" height="50" x="388" y="-25" fill="#FFFFFF" opacity="0.1" stroke="none"></rect><path class="link arrow" d="M946,0 L388,0" stroke-width="2px" fill="#FFFFFF" fill-opacity="0.5" stroke="#1F77B4" marker-end="url(#arrow)"></path><text class="frame-label" x="667" y="-7" text-anchor="middle" font-size="12">LS Update</text><text class="timestamp" x="10" y="4" font-size="9px" text-anchor="start">13.958650</text></g><g class="packet" transform="translate(0,2570.376344086021)"><rect width="372" height="50" x="388" y="-25" fill="#FFFFFF" opacity="0.1" stroke="none"></rect><path class="link arrow" d="M760,0 L388,0" stroke-width="2px" fill="#FFFFFF" fill-opacity="0.5" stroke="#1F77B4" marker-end="url(#arrow)"></path><text class="frame-label" x="574" y="-7" text-anchor="middle" font-size="12">LS Update</text><text class="timestamp" x="10" y="4" font-size="9px" text-anchor="start">14.478740</text></g><g class="packet" transform="translate(0,2620.483870967742)"><rect width="744" height="50" x="388" y="-25" fill="#FFFFFF" opacity="0.1" stroke="none"></rect><path class="link arrow" d="M1132,0 L388,0" stroke-width="2px" fill="#FFFFFF" fill-opacity="0.5" stroke="#1F77B4" marker-end="url(#arrow)"></path><text class="frame-label" x="760" y="-7" text-anchor="middle" font-size="12">LS Acknowledge</text><text class="timestamp" x="10" y="4" font-size="9px" text-anchor="start">14.526681</text></g><g class="packet" transform="translate(0,2670.591397849462)"><rect width="186" height="50" x="388" y="-25" fill="#FFFFFF" opacity="0.1" stroke="none"></rect><path class="link arrow" d="M574,0 L388,0" stroke-width="2px" fill="#FFFFFF" fill-opacity="0.5" stroke="#1F77B4" marker-end="url(#arrow)"></path><text class="frame-label" x="481" y="-7" text-anchor="middle" font-size="12">LS Acknowledge</text><text class="timestamp" x="10" y="4" font-size="9px" text-anchor="start">14.574721</text></g><g class="packet" transform="translate(0,2720.698924731183)"><rect width="558" height="50" x="388" y="-25" fill="#FFFFFF" opacity="0.1" stroke="none"></rect><path class="link arrow" d="M946,0 L388,0" stroke-width="2px" fill="#FFFFFF" fill-opacity="0.5" stroke="#1F77B4" marker-end="url(#arrow)"></path><text class="frame-label" x="667" y="-7" text-anchor="middle" font-size="12">Hello Packet</text><text class="timestamp" x="10" y="4" font-size="9px" text-anchor="start">14.846697</text></g><g class="packet" transform="translate(0,2770.806451612904)"><rect width="930" height="50" x="388" y="-25" fill="#FFFFFF" opacity="0.1" stroke="none"></rect><path class="link arrow" d="M1318,0 L388,0" stroke-width="2px" fill="#FFFFFF" fill-opacity="0.5" stroke="#1F77B4" marker-end="url(#arrow)"></path><text class="frame-label" x="853" y="-7" text-anchor="middle" font-size="12">Hello Packet</text><text class="timestamp" x="10" y="4" font-size="9px" text-anchor="start">14.846723</text></g><g class="packet" transform="translate(0,2820.9139784946237)"><rect width="744" height="50" x="388" y="-25" fill="#FFFFFF" opacity="0.1" stroke="none"></rect><path class="link arrow" d="M1132,0 L388,0" stroke-width="2px" fill="#FFFFFF" fill-opacity="0.5" stroke="#1F77B4" marker-end="url(#arrow)"></path><text class="frame-label" x="760" y="-7" text-anchor="middle" font-size="12">Hello Packet</text><text class="timestamp" x="10" y="4" font-size="9px" text-anchor="start">14.894719</text></g><g class="packet" transform="translate(0,2871.0215053763445)"><rect width="558" height="50" x="388" y="-25" fill="#FFFFFF" opacity="0.1" stroke="none"></rect><path class="link arrow" d="M946,0 L388,0" stroke-width="2px" fill="#FFFFFF" fill-opacity="0.5" stroke="#1F77B4" marker-end="url(#arrow)"></path><text class="frame-label" x="667" y="-7" text-anchor="middle" font-size="12">LS Update</text><text class="timestamp" x="10" y="4" font-size="9px" text-anchor="start">15.830755</text></g><g class="packet" transform="translate(0,2921.1290322580644)"><rect width="930" height="50" x="388" y="-25" fill="#FFFFFF" opacity="0.1" stroke="none"></rect><path class="link arrow" d="M1318,0 L388,0" stroke-width="2px" fill="#FFFFFF" fill-opacity="0.5" stroke="#1F77B4" marker-end="url(#arrow)"></path><text class="frame-label" x="853" y="-7" text-anchor="middle" font-size="12">LS Update</text><text class="timestamp" x="10" y="4" font-size="9px" text-anchor="start">15.958762</text></g><g class="packet" transform="translate(0,2971.236559139785)"><rect width="744" height="50" x="388" y="-25" fill="#FFFFFF" opacity="0.1" stroke="none"></rect><path class="link arrow" d="M1132,0 L388,0" stroke-width="2px" fill="#FFFFFF" fill-opacity="0.5" stroke="#1F77B4" marker-end="url(#arrow)"></path><text class="frame-label" x="760" y="-7" text-anchor="middle" font-size="12">LS Update</text><text class="timestamp" x="10" y="4" font-size="9px" text-anchor="start">15.958808</text></g><g class="packet" transform="translate(0,3021.3440860215055)"><rect width="558" height="50" x="388" y="-25" fill="#FFFFFF" opacity="0.1" stroke="none"></rect><path class="link arrow" d="M946,0 L388,0" stroke-width="2px" fill="#FFFFFF" fill-opacity="0.5" stroke="#1F77B4" marker-end="url(#arrow)"></path><text class="frame-label" x="667" y="-7" text-anchor="middle" font-size="12">LS Update</text><text class="timestamp" x="10" y="4" font-size="9px" text-anchor="start">15.966764</text></g><g class="packet" transform="translate(0,3071.451612903226)"><rect width="186" height="50" x="202" y="-25" fill="#FFFFFF" opacity="0.1" stroke="none"></rect><path class="link arrow" d="M202,0 L388,0" stroke-width="2px" fill="#FFFFFF" fill-opacity="0.5" stroke="#1F77B4" marker-end="url(#arrow)"></path><text class="frame-label" x="295" y="-7" text-anchor="middle" font-size="12">LS Update</text><text class="timestamp" x="10" y="4" font-size="9px" text-anchor="start">16.014806</text></g><g class="packet" transform="translate(0,3121.559139784946)"><rect width="930" height="50" x="388" y="-25" fill="#FFFFFF" opacity="0.1" stroke="none"></rect><path class="link arrow" d="M1318,0 L388,0" stroke-width="2px" fill="#FFFFFF" fill-opacity="0.5" stroke="#1F77B4" marker-end="url(#arrow)"></path><text class="frame-label" x="853" y="-7" text-anchor="middle" font-size="12">LS Update</text><text class="timestamp" x="10" y="4" font-size="9px" text-anchor="start">16.022763</text></g><g class="packet" transform="translate(0,3171.6666666666665)"><rect width="744" height="50" x="388" y="-25" fill="#FFFFFF" opacity="0.1" stroke="none"></rect><path class="link arrow" d="M1132,0 L388,0" stroke-width="2px" fill="#FFFFFF" fill-opacity="0.5" stroke="#1F77B4" marker-end="url(#arrow)"></path><text class="frame-label" x="760" y="-7" text-anchor="middle" font-size="12">LS Update</text><text class="timestamp" x="10" y="4" font-size="9px" text-anchor="start">16.022792</text></g><g class="packet" transform="translate(0,3221.774193548387)"><rect width="372" height="50" x="388" y="-25" fill="#FFFFFF" opacity="0.1" stroke="none"></rect><path class="link arrow" d="M760,0 L388,0" stroke-width="2px" fill="#FFFFFF" fill-opacity="0.5" stroke="#1F77B4" marker-end="url(#arrow)"></path><text class="frame-label" x="574" y="-7" text-anchor="middle" font-size="12">LS Acknowledge</text><text class="timestamp" x="10" y="4" font-size="9px" text-anchor="start">16.374855</text></g><g class="packet" transform="translate(0,3271.881720430108)"><rect width="930" height="50" x="388" y="-25" fill="#FFFFFF" opacity="0.1" stroke="none"></rect><path class="link arrow" d="M1318,0 L388,0" stroke-width="2px" fill="#FFFFFF" fill-opacity="0.5" stroke="#1F77B4" marker-end="url(#arrow)"></path><text class="frame-label" x="853" y="-7" text-anchor="middle" font-size="12">LS Acknowledge</text><text class="timestamp" x="10" y="4" font-size="9px" text-anchor="start">16.464885</text></g><g class="packet" transform="translate(0,3321.989247311828)"><rect width="186" height="50" x="202" y="-25" fill="#FFFFFF" opacity="0.1" stroke="none"></rect><path class="link arrow" d="M202,0 L388,0" stroke-width="2px" fill="#FFFFFF" fill-opacity="0.5" stroke="#1F77B4" marker-end="url(#arrow)"></path><text class="frame-label" x="295" y="-7" text-anchor="middle" font-size="12">LS Acknowledge</text><text class="timestamp" x="10" y="4" font-size="9px" text-anchor="start">16.496907</text></g><g class="packet" transform="translate(0,3372.0967741935488)"><rect width="186" height="50" x="388" y="-25" fill="#FFFFFF" opacity="0.1" stroke="none"></rect><path class="link arrow" d="M574,0 L388,0" stroke-width="2px" fill="#FFFFFF" fill-opacity="0.5" stroke="#1F77B4" marker-end="url(#arrow)"></path><text class="frame-label" x="481" y="-7" text-anchor="middle" font-size="12">LS Update</text><text class="timestamp" x="10" y="4" font-size="9px" text-anchor="start">17.286902</text></g><g class="packet" transform="translate(0,3422.2043010752686)"><rect width="930" height="50" x="388" y="-25" fill="#FFFFFF" opacity="0.1" stroke="none"></rect><path class="link arrow" d="M1318,0 L388,0" stroke-width="2px" fill="#FFFFFF" fill-opacity="0.5" stroke="#1F77B4" marker-end="url(#arrow)"></path><text class="frame-label" x="853" y="-7" text-anchor="middle" font-size="12">LS Update</text><text class="timestamp" x="10" y="4" font-size="9px" text-anchor="start">17.336928</text></g><g class="packet" transform="translate(0,3472.3118279569894)"><rect width="558" height="50" x="388" y="-25" fill="#FFFFFF" opacity="0.1" stroke="none"></rect><path class="link arrow" d="M946,0 L388,0" stroke-width="2px" fill="#FFFFFF" fill-opacity="0.5" stroke="#1F77B4" marker-end="url(#arrow)"></path><text class="frame-label" x="667" y="-7" text-anchor="middle" font-size="12">LS Update</text><text class="timestamp" x="10" y="4" font-size="9px" text-anchor="start">17.336961</text></g><g class="packet" transform="translate(0,3522.4193548387098)"><rect width="186" height="50" x="388" y="-25" fill="#FFFFFF" opacity="0.1" stroke="none"></rect><path class="link arrow" d="M574,0 L388,0" stroke-width="2px" fill="#FFFFFF" fill-opacity="0.5" stroke="#1F77B4" marker-end="url(#arrow)"></path><text class="frame-label" x="481" y="-7" text-anchor="middle" font-size="12">LS Acknowledge</text><text class="timestamp" x="10" y="4" font-size="9px" text-anchor="start">18.487010</text></g><g class="packet" transform="translate(0,3572.52688172043)"><rect width="558" height="50" x="388" y="-25" fill="#FFFFFF" opacity="0.1" stroke="none"></rect><path class="link arrow" d="M946,0 L388,0" stroke-width="2px" fill="#FFFFFF" fill-opacity="0.5" stroke="#1F77B4" marker-end="url(#arrow)"></path><text class="frame-label" x="667" y="-7" text-anchor="middle" font-size="12">LS Acknowledge</text><text class="timestamp" x="10" y="4" font-size="9px" text-anchor="start">18.537001</text></g><g class="packet" transform="translate(0,3622.6344086021504)"><rect width="372" height="50" x="388" y="-25" fill="#FFFFFF" opacity="0.1" stroke="none"></rect><path class="link arrow" d="M760,0 L388,0" stroke-width="2px" fill="#FFFFFF" fill-opacity="0.5" stroke="#1F77B4" marker-end="url(#arrow)"></path><text class="frame-label" x="574" y="-7" text-anchor="middle" font-size="12">LS Update</text><text class="timestamp" x="10" y="4" font-size="9px" text-anchor="start">19.167028</text></g><g class="packet" transform="translate(0,3672.7419354838707)"><rect width="744" height="50" x="388" y="-25" fill="#FFFFFF" opacity="0.1" stroke="none"></rect><path class="link arrow" d="M1132,0 L388,0" stroke-width="2px" fill="#FFFFFF" fill-opacity="0.5" stroke="#1F77B4" marker-end="url(#arrow)"></path><text class="frame-label" x="760" y="-7" text-anchor="middle" font-size="12">LS Update</text><text class="timestamp" x="10" y="4" font-size="9px" text-anchor="start">19.254999</text></g><g class="packet" transform="translate(0,3722.849462365591)"><rect width="558" height="50" x="388" y="-25" fill="#FFFFFF" opacity="0.1" stroke="none"></rect><path class="link arrow" d="M946,0 L388,0" stroke-width="2px" fill="#FFFFFF" fill-opacity="0.5" stroke="#1F77B4" marker-end="url(#arrow)"></path><text class="frame-label" x="667" y="-7" text-anchor="middle" font-size="12">LS Update</text><text class="timestamp" x="10" y="4" font-size="9px" text-anchor="start">19.255032</text></g><g class="packet" transform="translate(0,3772.956989247312)"><rect width="744" height="50" x="388" y="-25" fill="#FFFFFF" opacity="0.1" stroke="none"></rect><path class="link arrow" d="M1132,0 L388,0" stroke-width="2px" fill="#FFFFFF" fill-opacity="0.5" stroke="#1F77B4" marker-end="url(#arrow)"></path><text class="frame-label" x="760" y="-7" text-anchor="middle" font-size="12">LS Acknowledge</text><text class="timestamp" x="10" y="4" font-size="9px" text-anchor="start">19.831039</text></g><g class="packet" transform="translate(0,3823.0645161290317)"><rect width="372" height="50" x="388" y="-25" fill="#FFFFFF" opacity="0.1" stroke="none"></rect><path class="link arrow" d="M760,0 L388,0" stroke-width="2px" fill="#FFFFFF" fill-opacity="0.5" stroke="#1F77B4" marker-end="url(#arrow)"></path><text class="frame-label" x="574" y="-7" text-anchor="middle" font-size="12">LS Acknowledge</text><text class="timestamp" x="10" y="4" font-size="9px" text-anchor="start">19.895094</text></g><g class="packet" transform="translate(0,3873.172043010753)"><rect width="186" height="50" x="202" y="-25" fill="#FFFFFF" opacity="0.1" stroke="none"></rect><path class="link arrow" d="M202,0 L388,0" stroke-width="2px" fill="#FFFFFF" fill-opacity="0.5" stroke="#1F77B4" marker-end="url(#arrow)"></path><text class="frame-label" x="295" y="-7" text-anchor="middle" font-size="12">LS Acknowledge</text><text class="timestamp" x="10" y="4" font-size="9px" text-anchor="start">19.903072</text></g><g class="packet" transform="translate(0,3923.2795698924733)"><rect width="186" height="50" x="202" y="-25" fill="#FFFFFF" opacity="0.1" stroke="none"></rect><path class="link arrow" d="M202,0 L388,0" stroke-width="2px" fill="#FFFFFF" fill-opacity="0.5" stroke="#1F77B4" marker-end="url(#arrow)"></path><text class="frame-label" x="295" y="-7" text-anchor="middle" font-size="12">Hello Packet</text><text class="timestamp" x="10" y="4" font-size="9px" text-anchor="start">19.999086</text></g><g class="packet" transform="translate(0,3973.3870967741937)"><rect width="558" height="50" x="388" y="-25" fill="#FFFFFF" opacity="0.1" stroke="none"></rect><path class="link arrow" d="M946,0 L388,0" stroke-width="2px" fill="#FFFFFF" fill-opacity="0.5" stroke="#1F77B4" marker-end="url(#arrow)"></path><text class="frame-label" x="667" y="-7" text-anchor="middle" font-size="12">LS Update</text><text class="timestamp" x="10" y="4" font-size="9px" text-anchor="start">20.647085</text></g><g class="packet" transform="translate(0,4023.4946236559144)"><rect width="186" height="50" x="388" y="-25" fill="#FFFFFF" opacity="0.1" stroke="none"></rect><path class="link arrow" d="M574,0 L388,0" stroke-width="2px" fill="#FFFFFF" fill-opacity="0.5" stroke="#1F77B4" marker-end="url(#arrow)"></path><text class="frame-label" x="481" y="-7" text-anchor="middle" font-size="12">Hello Packet</text><text class="timestamp" x="10" y="4" font-size="9px" text-anchor="start">21.673232</text></g><g class="packet" transform="translate(0,4073.6021505376343)"><rect width="930" height="50" x="388" y="-25" fill="#FFFFFF" opacity="0.1" stroke="none"></rect><path class="link arrow" d="M1318,0 L388,0" stroke-width="2px" fill="#FFFFFF" fill-opacity="0.5" stroke="#1F77B4" marker-end="url(#arrow)"></path><text class="frame-label" x="853" y="-7" text-anchor="middle" font-size="12">LS Acknowledge</text><text class="timestamp" x="10" y="4" font-size="9px" text-anchor="start">21.767149</text></g><g class="packet" transform="translate(0,4123.709677419354)"><rect width="186" height="50" x="388" y="-25" fill="#FFFFFF" opacity="0.1" stroke="none"></rect><path class="link arrow" d="M574,0 L388,0" stroke-width="2px" fill="#FFFFFF" fill-opacity="0.5" stroke="#1F77B4" marker-end="url(#arrow)"></path><text class="frame-label" x="481" y="-7" text-anchor="middle" font-size="12">LS Acknowledge</text><text class="timestamp" x="10" y="4" font-size="9px" text-anchor="start">21.857245</text></g><g class="packet" transform="translate(0,4173.817204301075)"><rect width="186" height="50" x="202" y="-25" fill="#FFFFFF" opacity="0.1" stroke="none"></rect><path class="link arrow" d="M202,0 L388,0" stroke-width="2px" fill="#FFFFFF" fill-opacity="0.5" stroke="#1F77B4" marker-end="url(#arrow)"></path><text class="frame-label" x="295" y="-7" text-anchor="middle" font-size="12">LS Acknowledge</text><text class="timestamp" x="10" y="4" font-size="9px" text-anchor="start">23.217316</text></g><g class="packet" transform="translate(0,4223.924731182796)"><rect width="372" height="50" x="388" y="-25" fill="#FFFFFF" opacity="0.1" stroke="none"></rect><path class="link arrow" d="M760,0 L388,0" stroke-width="2px" fill="#FFFFFF" fill-opacity="0.5" stroke="#1F77B4" marker-end="url(#arrow)"></path><text class="frame-label" x="574" y="-7" text-anchor="middle" font-size="12">Hello Packet</text><text class="timestamp" x="10" y="4" font-size="9px" text-anchor="start">23.593338</text></g><g class="packet" transform="translate(0,4274.032258064516)"><rect width="558" height="50" x="388" y="-25" fill="#FFFFFF" opacity="0.1" stroke="none"></rect><path class="link arrow" d="M946,0 L388,0" stroke-width="2px" fill="#FFFFFF" fill-opacity="0.5" stroke="#1F77B4" marker-end="url(#arrow)"></path><text class="frame-label" x="667" y="-7" text-anchor="middle" font-size="12">Hello Packet</text><text class="timestamp" x="10" y="4" font-size="9px" text-anchor="start">24.835423</text></g><g class="packet" transform="translate(0,4324.139784946236)"><rect width="744" height="50" x="388" y="-25" fill="#FFFFFF" opacity="0.1" stroke="none"></rect><path class="link arrow" d="M1132,0 L388,0" stroke-width="2px" fill="#FFFFFF" fill-opacity="0.5" stroke="#1F77B4" marker-end="url(#arrow)"></path><text class="frame-label" x="760" y="-7" text-anchor="middle" font-size="12">Hello Packet</text><text class="timestamp" x="10" y="4" font-size="9px" text-anchor="start">24.843431</text></g><g class="packet" transform="translate(0,4374.247311827957)"><rect width="930" height="50" x="388" y="-25" fill="#FFFFFF" opacity="0.1" stroke="none"></rect><path class="link arrow" d="M1318,0 L388,0" stroke-width="2px" fill="#FFFFFF" fill-opacity="0.5" stroke="#1F77B4" marker-end="url(#arrow)"></path><text class="frame-label" x="853" y="-7" text-anchor="middle" font-size="12">Hello Packet</text><text class="timestamp" x="10" y="4" font-size="9px" text-anchor="start">24.843457</text></g><g class="packet" transform="translate(0,4424.354838709677)"><rect width="186" height="50" x="202" y="-25" fill="#FFFFFF" opacity="0.1" stroke="none"></rect><path class="link arrow" d="M202,0 L388,0" stroke-width="2px" fill="#FFFFFF" fill-opacity="0.5" stroke="#1F77B4" marker-end="url(#arrow)"></path><text class="frame-label" x="295" y="-7" text-anchor="middle" font-size="12">Hello Packet</text><text class="timestamp" x="10" y="4" font-size="9px" text-anchor="start">30.051745</text></g><g class="packet" transform="translate(0,4474.462365591397)"><rect width="186" height="50" x="388" y="-25" fill="#FFFFFF" opacity="0.1" stroke="none"></rect><path class="link arrow" d="M574,0 L388,0" stroke-width="2px" fill="#FFFFFF" fill-opacity="0.5" stroke="#1F77B4" marker-end="url(#arrow)"></path><text class="frame-label" x="481" y="-7" text-anchor="middle" font-size="12">Hello Packet</text><text class="timestamp" x="10" y="4" font-size="9px" text-anchor="start">31.683835</text></g><g class="packet" transform="translate(0,4524.569892473119)"><rect width="372" height="50" x="388" y="-25" fill="#FFFFFF" opacity="0.1" stroke="none"></rect><path class="link arrow" d="M760,0 L388,0" stroke-width="2px" fill="#FFFFFF" fill-opacity="0.5" stroke="#1F77B4" marker-end="url(#arrow)"></path><text class="frame-label" x="574" y="-7" text-anchor="middle" font-size="12">Hello Packet</text><text class="timestamp" x="10" y="4" font-size="9px" text-anchor="start">33.603957</text></g><g class="packet" transform="translate(0,4574.677419354839)"><rect width="558" height="50" x="388" y="-25" fill="#FFFFFF" opacity="0.1" stroke="none"></rect><path class="link arrow" d="M946,0 L388,0" stroke-width="2px" fill="#FFFFFF" fill-opacity="0.5" stroke="#1F77B4" marker-end="url(#arrow)"></path><text class="frame-label" x="667" y="-7" text-anchor="middle" font-size="12">Hello Packet</text><text class="timestamp" x="10" y="4" font-size="9px" text-anchor="start">34.837966</text></g><g class="packet" transform="translate(0,4624.784946236558)"><rect width="744" height="50" x="388" y="-25" fill="#FFFFFF" opacity="0.1" stroke="none"></rect><path class="link arrow" d="M1132,0 L388,0" stroke-width="2px" fill="#FFFFFF" fill-opacity="0.5" stroke="#1F77B4" marker-end="url(#arrow)"></path><text class="frame-label" x="760" y="-7" text-anchor="middle" font-size="12">Hello Packet</text><text class="timestamp" x="10" y="4" font-size="9px" text-anchor="start">34.837984</text></g><g class="packet" transform="translate(0,4674.89247311828)"><rect width="930" height="50" x="388" y="-25" fill="#FFFFFF" opacity="0.1" stroke="none"></rect><path class="link arrow" d="M1318,0 L388,0" stroke-width="2px" fill="#FFFFFF" fill-opacity="0.5" stroke="#1F77B4" marker-end="url(#arrow)"></path><text class="frame-label" x="853" y="-7" text-anchor="middle" font-size="12">Hello Packet</text><text class="timestamp" x="10" y="4" font-size="9px" text-anchor="start">34.885970</text></g></svg>