<svg xmlns:xlink="http://www.w3.org/1999/xlink" xmlns="http://www.w3.org/2000/svg" id="svg" height="3250" width="1470">
        <defs><marker id="arrow" refX="11" refY="6" markerWidth="13" markerHeight="13" stroke="none" orient="auto" markerUnits="userSpaceOnUse"><path d="M2,2 L2,11 L10,6 L2,2"></path></marker></defs>
      <g class="node" transform="translate(200,20)" id="line_0"><line x1="0" y1="0" x2="0" y2="3250" stroke="#AAAAAA"></line></g><g class="node" transform="translate(760,20)" id="line_1"><line x1="0" y1="0" x2="0" y2="3250" stroke="#AAAAAA"></line></g><g class="node" transform="translate(1320,20)" id="line_2"><line x1="0" y1="0" x2="0" y2="3250" stroke="#AAAAAA"></line></g><g class="packet" transform="translate(0,65)"><rect width="560" height="50" x="200" y="-25" fill="#FFFFFF" opacity="0.1" stroke="none"></rect><path class="link arrow" d="M200,0 L760,0" stroke-width="2px" fill="#FFFFFF" fill-opacity="0.5" stroke="#1F77B4" marker-end="url(#arrow)"></path><text class="frame-label" x="480" y="-7" text-anchor="middle" font-size="12">Hello Packet</text><text class="timestamp" x="10" y="4" font-size="9px" text-anchor="start">0.000000</text></g><g class="packet" transform="translate(0,115.15873015873017)"><rect width="560" height="50" x="200" y="-25" fill="#FFFFFF" opacity="0.1" stroke="none"></rect><path class="link arrow" d="M200,0 L760,0" stroke-width="2px" fill="#FFFFFF" fill-opacity="0.5" stroke="#1F77B4" marker-end="url(#arrow)"></path><text class="frame-label" x="480" y="-7" text-anchor="middle" font-size="12">Hello Packet</text><text class="timestamp" x="10" y="4" font-size="9px" text-anchor="start">9.977000</text></g><g class="packet" transform="translate(0,165.3174603174603)"><rect width="560" height="50" x="200" y="-25" fill="#FFFFFF" opacity="0.1" stroke="none"></rect><path class="link arrow" d="M200,0 L760,0" stroke-width="2px" fill="#FFFFFF" fill-opacity="0.5" stroke="#1F77B4" marker-end="url(#arrow)"></path><text class="frame-label" x="480" y="-7" text-anchor="middle" font-size="12">Hello Packet</text><text class="timestamp" x="10" y="4" font-size="9px" text-anchor="start">19.970000</text></g><g class="packet" transform="translate(0,215.47619047619045)"><rect width="560" height="50" x="200" y="-25" fill="#FFFFFF" opacity="0.1" stroke="none"></rect><path class="link arrow" d="M200,0 L760,0" stroke-width="2px" fill="#FFFFFF" fill-opacity="0.5" stroke="#1F77B4" marker-end="url(#arrow)"></path><text class="frame-label" x="480" y="-7" text-anchor="middle" font-size="12">Hello Packet</text><text class="timestamp" x="10" y="4" font-size="9px" text-anchor="start">29.978000</text></g><g class="packet" transform="translate(0,265.6349206349206)"><rect width="560" height="50" x="200" y="-25" fill="#FFFFFF" opacity="0.1" stroke="none"></rect><path class="link arrow" d="M200,0 L760,0" stroke-width="2px" fill="#FFFFFF" fill-opacity="0.5" stroke="#1F77B4" marker-end="url(#arrow)"></path><text class="frame-label" x="480" y="-7" text-anchor="middle" font-size="12">Hello Packet</text><text class="timestamp" x="10" y="4" font-size="9px" text-anchor="start">39.981000</text></g><g class="packet" transform="translate(0,315.7936507936508)"><rect width="560" height="50" x="760" y="-25" fill="#FFFFFF" opacity="0.1" stroke="none"></rect><path class="link arrow" d="M1320,0 L760,0" stroke-width="2px" fill="#FFFFFF" fill-opacity="0.5" stroke="#1F77B4" marker-end="url(#arrow)"></path><text class="frame-label" x="1040" y="-7" text-anchor="middle" font-size="12">Hello Packet</text><text class="timestamp" x="10" y="4" font-size="9px" text-anchor="start">40.779000</text></g><g class="packet" transform="translate(0,365.9523809523809)"><rect width="560" height="50" x="200" y="-25" fill="#FFFFFF" opacity="0.1" stroke="none"></rect><path class="link arrow" d="M200,0 L760,0" stroke-width="2px" fill="#FFFFFF" fill-opacity="0.5" stroke="#1F77B4" marker-end="url(#arrow)"></path><text class="frame-label" x="480" y="-7" text-anchor="middle" font-size="12">Hello Packet</text><text class="timestamp" x="10" y="4" font-size="9px" text-anchor="start">40.864000</text></g><g class="packet" transform="translate(0,416.1111111111111)"><rect width="560" height="50" x="760" y="-25" fill="#FFFFFF" opacity="0.1" stroke="none"></rect><path class="link arrow" d="M1320,0 L760,0" stroke-width="2px" fill="#FFFFFF" fill-opacity="0.5" stroke="#1F77B4" marker-end="url(#arrow)"></path><text class="frame-label" x="1040" y="-7" text-anchor="middle" font-size="12">DB Description</text><text class="timestamp" x="10" y="4" font-size="9px" text-anchor="start">40.965000</text></g><g class="packet" transform="translate(0,466.26984126984127)"><rect width="560" height="50" x="760" y="-25" fill="#FFFFFF" opacity="0.1" stroke="none"></rect><path class="link arrow" d="M1320,0 L760,0" stroke-width="2px" fill="#FFFFFF" fill-opacity="0.5" stroke="#1F77B4" marker-end="url(#arrow)"></path><text class="frame-label" x="1040" y="-7" text-anchor="middle" font-size="12">Hello Packet</text><text class="timestamp" x="10" y="4" font-size="9px" text-anchor="start">40.969000</text></g><g class="packet" transform="translate(0,516.4285714285713)"><rect width="560" height="50" x="200" y="-25" fill="#FFFFFF" opacity="0.1" stroke="none"></rect><path class="link arrow" d="M200,0 L760,0" stroke-width="2px" fill="#FFFFFF" fill-opacity="0.5" stroke="#1F77B4" marker-end="url(#arrow)"></path><text class="frame-label" x="480" y="-7" text-anchor="middle" font-size="12">DB Description</text><text class="timestamp" x="10" y="4" font-size="9px" text-anchor="start">40.982000</text></g><g class="packet" transform="translate(0,566.5873015873016)"><rect width="560" height="50" x="200" y="-25" fill="#FFFFFF" opacity="0.1" stroke="none"></rect><path class="link arrow" d="M200,0 L760,0" stroke-width="2px" fill="#FFFFFF" fill-opacity="0.5" stroke="#1F77B4" marker-end="url(#arrow)"></path><text class="frame-label" x="480" y="-7" text-anchor="middle" font-size="12">DB Description</text><text class="timestamp" x="10" y="4" font-size="9px" text-anchor="start">41.025000</text></g><g class="packet" transform="translate(0,616.7460317460317)"><rect width="560" height="50" x="760" y="-25" fill="#FFFFFF" opacity="0.1" stroke="none"></rect><path class="link arrow" d="M1320,0 L760,0" stroke-width="2px" fill="#FFFFFF" fill-opacity="0.5" stroke="#1F77B4" marker-end="url(#arrow)"></path><text class="frame-label" x="1040" y="-7" text-anchor="middle" font-size="12">DB Description</text><text class="timestamp" x="10" y="4" font-size="9px" text-anchor="start">41.048000</text></g><g class="packet" transform="translate(0,666.9047619047618)"><rect width="560" height="50" x="200" y="-25" fill="#FFFFFF" opacity="0.1" stroke="none"></rect><path class="link arrow" d="M200,0 L760,0" stroke-width="2px" fill="#FFFFFF" fill-opacity="0.5" stroke="#1F77B4" marker-end="url(#arrow)"></path><text class="frame-label" x="480" y="-7" text-anchor="middle" font-size="12">DB Description</text><text class="timestamp" x="10" y="4" font-size="9px" text-anchor="start">41.129000</text></g><g class="packet" transform="translate(0,717.063492063492)"><rect width="560" height="50" x="760" y="-25" fill="#FFFFFF" opacity="0.1" stroke="none"></rect><path class="link arrow" d="M1320,0 L760,0" stroke-width="2px" fill="#FFFFFF" fill-opacity="0.5" stroke="#1F77B4" marker-end="url(#arrow)"></path><text class="frame-label" x="1040" y="-7" text-anchor="middle" font-size="12">LS Request</text><text class="timestamp" x="10" y="4" font-size="9px" text-anchor="start">41.142000</text></g><g class="packet" transform="translate(0,767.2222222222222)"><rect width="560" height="50" x="200" y="-25" fill="#FFFFFF" opacity="0.1" stroke="none"></rect><path class="link arrow" d="M200,0 L760,0" stroke-width="2px" fill="#FFFFFF" fill-opacity="0.5" stroke="#1F77B4" marker-end="url(#arrow)"></path><text class="frame-label" x="480" y="-7" text-anchor="middle" font-size="12">LS Update</text><text class="timestamp" x="10" y="4" font-size="9px" text-anchor="start">41.175000</text></g><g class="packet" transform="translate(0,817.3809523809523)"><rect width="560" height="50" x="760" y="-25" fill="#FFFFFF" opacity="0.1" stroke="none"></rect><path class="link arrow" d="M1320,0 L760,0" stroke-width="2px" fill="#FFFFFF" fill-opacity="0.5" stroke="#1F77B4" marker-end="url(#arrow)"></path><text class="frame-label" x="1040" y="-7" text-anchor="middle" font-size="12">LS Update</text><text class="timestamp" x="10" y="4" font-size="9px" text-anchor="start">41.294000</text></g><g class="packet" transform="translate(0,867.5396825396825)"><rect width="560" height="50" x="200" y="-25" fill="#FFFFFF" opacity="0.1" stroke="none"></rect><path class="link arrow" d="M200,0 L760,0" stroke-width="2px" fill="#FFFFFF" fill-opacity="0.5" stroke="#1F77B4" marker-end="url(#arrow)"></path><text class="frame-label" x="480" y="-7" text-anchor="middle" font-size="12">LS Update</text><text class="timestamp" x="10" y="4" font-size="9px" text-anchor="start">41.595000</text></g><g class="packet" transform="translate(0,917.6984126984127)"><rect width="560" height="50" x="760" y="-25" fill="#FFFFFF" opacity="0.1" stroke="none"></rect><path class="link arrow" d="M1320,0 L760,0" stroke-width="2px" fill="#FFFFFF" fill-opacity="0.5" stroke="#1F77B4" marker-end="url(#arrow)"></path><text class="frame-label" x="1040" y="-7" text-anchor="middle" font-size="12">LS Acknowledge</text><text class="timestamp" x="10" y="4" font-size="9px" text-anchor="start">43.711000</text></g><g class="packet" transform="translate(0,967.8571428571428)"><rect width="560" height="50" x="200" y="-25" fill="#FFFFFF" opacity="0.1" stroke="none"></rect><path class="link arrow" d="M200,0 L760,0" stroke-width="2px" fill="#FFFFFF" fill-opacity="0.5" stroke="#1F77B4" marker-end="url(#arrow)"></path><text class="frame-label" x="480" y="-7" text-anchor="middle" font-size="12">LS Acknowledge</text><text class="timestamp" x="10" y="4" font-size="9px" text-anchor="start">43.809000</text></g><g class="packet" transform="translate(0,1018.015873015873)"><rect width="560" height="50" x="200" y="-25" fill="#FFFFFF" opacity="0.1" stroke="none"></rect><path class="link arrow" d="M200,0 L760,0" stroke-width="2px" fill="#FFFFFF" fill-opacity="0.5" stroke="#1F77B4" marker-end="url(#arrow)"></path><text class="frame-label" x="480" y="-7" text-anchor="middle" font-size="12">Hello Packet</text><text class="timestamp" x="10" y="4" font-size="9px" text-anchor="start">49.956000</text></g><g class="packet" transform="translate(0,1068.1746031746031)"><rect width="560" height="50" x="760" y="-25" fill="#FFFFFF" opacity="0.1" stroke="none"></rect><path class="link arrow" d="M1320,0 L760,0" stroke-width="2px" fill="#FFFFFF" fill-opacity="0.5" stroke="#1F77B4" marker-end="url(#arrow)"></path><text class="frame-label" x="1040" y="-7" text-anchor="middle" font-size="12">Hello Packet</text><text class="timestamp" x="10" y="4" font-size="9px" text-anchor="start">50.728000</text></g><g class="packet" transform="translate(0,1118.3333333333333)"><rect width="560" height="50" x="200" y="-25" fill="#FFFFFF" opacity="0.1" stroke="none"></rect><path class="link arrow" d="M200,0 L760,0" stroke-width="2px" fill="#FFFFFF" fill-opacity="0.5" stroke="#1F77B4" marker-end="url(#arrow)"></path><text class="frame-label" x="480" y="-7" text-anchor="middle" font-size="12">Hello Packet</text><text class="timestamp" x="10" y="4" font-size="9px" text-anchor="start">59.967000</text></g><g class="packet" transform="translate(0,1168.4920634920634)"><rect width="560" height="50" x="760" y="-25" fill="#FFFFFF" opacity="0.1" stroke="none"></rect><path class="link arrow" d="M1320,0 L760,0" stroke-width="2px" fill="#FFFFFF" fill-opacity="0.5" stroke="#1F77B4" marker-end="url(#arrow)"></path><text class="frame-label" x="1040" y="-7" text-anchor="middle" font-size="12">Hello Packet</text><text class="timestamp" x="10" y="4" font-size="9px" text-anchor="start">60.728000</text></g><g class="packet" transform="translate(0,1218.6507936507935)"><rect width="560" height="50" x="200" y="-25" fill="#FFFFFF" opacity="0.1" stroke="none"></rect><path class="link arrow" d="M200,0 L760,0" stroke-width="2px" fill="#FFFFFF" fill-opacity="0.5" stroke="#1F77B4" marker-end="url(#arrow)"></path><text class="frame-label" x="480" y="-7" text-anchor="middle" font-size="12">Hello Packet</text><text class="timestamp" x="10" y="4" font-size="9px" text-anchor="start">69.980000</text></g><g class="packet" transform="translate(0,1268.8095238095236)"><rect width="560" height="50" x="760" y="-25" fill="#FFFFFF" opacity="0.1" stroke="none"></rect><path class="link arrow" d="M1320,0 L760,0" stroke-width="2px" fill="#FFFFFF" fill-opacity="0.5" stroke="#1F77B4" marker-end="url(#arrow)"></path><text class="frame-label" x="1040" y="-7" text-anchor="middle" font-size="12">Hello Packet</text><text class="timestamp" x="10" y="4" font-size="9px" text-anchor="start">70.723000</text></g><g class="packet" transform="translate(0,1318.9682539682537)"><rect width="560" height="50" x="200" y="-25" fill="#FFFFFF" opacity="0.1" stroke="none"></rect><path class="link arrow" d="M200,0 L760,0" stroke-width="2px" fill="#FFFFFF" fill-opacity="0.5" stroke="#1F77B4" marker-end="url(#arrow)"></path><text class="frame-label" x="480" y="-7" text-anchor="middle" font-size="12">LS Update</text><text class="timestamp" x="10" y="4" font-size="9px" text-anchor="start">74.915000</text></g><g class="packet" transform="translate(0,1369.126984126984)"><rect width="560" height="50" x="760" y="-25" fill="#FFFFFF" opacity="0.1" stroke="none"></rect><path class="link arrow" d="M1320,0 L760,0" stroke-width="2px" fill="#FFFFFF" fill-opacity="0.5" stroke="#1F77B4" marker-end="url(#arrow)"></path><text class="frame-label" x="1040" y="-7" text-anchor="middle" font-size="12">LS Acknowledge</text><text class="timestamp" x="10" y="4" font-size="9px" text-anchor="start">77.474000</text></g><g class="packet" transform="translate(0,1419.2857142857142)"><rect width="560" height="50" x="200" y="-25" fill="#FFFFFF" opacity="0.1" stroke="none"></rect><path class="link arrow" d="M200,0 L760,0" stroke-width="2px" fill="#FFFFFF" fill-opacity="0.5" stroke="#1F77B4" marker-end="url(#arrow)"></path><text class="frame-label" x="480" y="-7" text-anchor="middle" font-size="12">Hello Packet</text><text class="timestamp" x="10" y="4" font-size="9px" text-anchor="start">79.985000</text></g><g class="packet" transform="translate(0,1469.4444444444443)"><rect width="560" height="50" x="760" y="-25" fill="#FFFFFF" opacity="0.1" stroke="none"></rect><path class="link arrow" d="M1320,0 L760,0" stroke-width="2px" fill="#FFFFFF" fill-opacity="0.5" stroke="#1F77B4" marker-end="url(#arrow)"></path><text class="frame-label" x="1040" y="-7" text-anchor="middle" font-size="12">Hello Packet</text><text class="timestamp" x="10" y="4" font-size="9px" text-anchor="start">80.711000</text></g><g class="packet" transform="translate(0,1519.6031746031745)"><rect width="560" height="50" x="200" y="-25" fill="#FFFFFF" opacity="0.1" stroke="none"></rect><path class="link arrow" d="M200,0 L760,0" stroke-width="2px" fill="#FFFFFF" fill-opacity="0.5" stroke="#1F77B4" marker-end="url(#arrow)"></path><text class="frame-label" x="480" y="-7" text-anchor="middle" font-size="12">Hello Packet</text><text class="timestamp" x="10" y="4" font-size="9px" text-anchor="start">89.961000</text></g><g class="packet" transform="translate(0,1569.7619047619046)"><rect width="560" height="50" x="760" y="-25" fill="#FFFFFF" opacity="0.1" stroke="none"></rect><path class="link arrow" d="M1320,0 L760,0" stroke-width="2px" fill="#FFFFFF" fill-opacity="0.5" stroke="#1F77B4" marker-end="url(#arrow)"></path><text class="frame-label" x="1040" y="-7" text-anchor="middle" font-size="12">Hello Packet</text><text class="timestamp" x="10" y="4" font-size="9px" text-anchor="start">90.713000</text></g><g class="packet" transform="translate(0,1619.920634920635)"><rect width="560" height="50" x="200" y="-25" fill="#FFFFFF" opacity="0.1" stroke="none"></rect><path class="link arrow" d="M200,0 L760,0" stroke-width="2px" fill="#FFFFFF" fill-opacity="0.5" stroke="#1F77B4" marker-end="url(#arrow)"></path><text class="frame-label" x="480" y="-7" text-anchor="middle" font-size="12">Hello Packet</text><text class="timestamp" x="10" y="4" font-size="9px" text-anchor="start">99.957000</text></g><g class="packet" transform="translate(0,1670.079365079365)"><rect width="560" height="50" x="760" y="-25" fill="#FFFFFF" opacity="0.1" stroke="none"></rect><path class="link arrow" d="M1320,0 L760,0" stroke-width="2px" fill="#FFFFFF" fill-opacity="0.5" stroke="#1F77B4" marker-end="url(#arrow)"></path><text class="frame-label" x="1040" y="-7" text-anchor="middle" font-size="12">Hello Packet</text><text class="timestamp" x="10" y="4" font-size="9px" text-anchor="start">100.740000</text></g><g class="packet" transform="translate(0,1720.2380952380954)"><rect width="560" height="50" x="760" y="-25" fill="#FFFFFF" opacity="0.1" stroke="none"></rect><path class="link arrow" d="M1320,0 L760,0" stroke-width="2px" fill="#FFFFFF" fill-opacity="0.5" stroke="#1F77B4" marker-end="url(#arrow)"></path><text class="frame-label" x="1040" y="-7" text-anchor="middle" font-size="12">LS Update</text><text class="timestamp" x="10" y="4" font-size="9px" text-anchor="start">101.095000</text></g><g class="packet" transform="translate(0,1770.3968253968253)"><rect width="560" height="50" x="200" y="-25" fill="#FFFFFF" opacity="0.1" stroke="none"></rect><path class="link arrow" d="M200,0 L760,0" stroke-width="2px" fill="#FFFFFF" fill-opacity="0.5" stroke="#1F77B4" marker-end="url(#arrow)"></path><text class="frame-label" x="480" y="-7" text-anchor="middle" font-size="12">LS Acknowledge</text><text class="timestamp" x="10" y="4" font-size="9px" text-anchor="start">103.638000</text></g><g class="packet" transform="translate(0,1820.5555555555557)"><rect width="560" height="50" x="200" y="-25" fill="#FFFFFF" opacity="0.1" stroke="none"></rect><path class="link arrow" d="M200,0 L760,0" stroke-width="2px" fill="#FFFFFF" fill-opacity="0.5" stroke="#1F77B4" marker-end="url(#arrow)"></path><text class="frame-label" x="480" y="-7" text-anchor="middle" font-size="12">Hello Packet</text><text class="timestamp" x="10" y="4" font-size="9px" text-anchor="start">109.955000</text></g><g class="packet" transform="translate(0,1870.7142857142856)"><rect width="560" height="50" x="760" y="-25" fill="#FFFFFF" opacity="0.1" stroke="none"></rect><path class="link arrow" d="M1320,0 L760,0" stroke-width="2px" fill="#FFFFFF" fill-opacity="0.5" stroke="#1F77B4" marker-end="url(#arrow)"></path><text class="frame-label" x="1040" y="-7" text-anchor="middle" font-size="12">Hello Packet</text><text class="timestamp" x="10" y="4" font-size="9px" text-anchor="start">110.734000</text></g><g class="packet" transform="translate(0,1920.873015873016)"><rect width="560" height="50" x="200" y="-25" fill="#FFFFFF" opacity="0.1" stroke="none"></rect><path class="link arrow" d="M200,0 L760,0" stroke-width="2px" fill="#FFFFFF" fill-opacity="0.5" stroke="#1F77B4" marker-end="url(#arrow)"></path><text class="frame-label" x="480" y="-7" text-anchor="middle" font-size="12">Hello Packet</text><text class="timestamp" x="10" y="4" font-size="9px" text-anchor="start">119.968000</text></g><g class="packet" transform="translate(0,1971.031746031746)"><rect width="560" height="50" x="760" y="-25" fill="#FFFFFF" opacity="0.1" stroke="none"></rect><path class="link arrow" d="M1320,0 L760,0" stroke-width="2px" fill="#FFFFFF" fill-opacity="0.5" stroke="#1F77B4" marker-end="url(#arrow)"></path><text class="frame-label" x="1040" y="-7" text-anchor="middle" font-size="12">Hello Packet</text><text class="timestamp" x="10" y="4" font-size="9px" text-anchor="start">120.755000</text></g><g class="packet" transform="translate(0,2021.1904761904764)"><rect width="560" height="50" x="200" y="-25" fill="#FFFFFF" opacity="0.1" stroke="none"></rect><path class="link arrow" d="M200,0 L760,0" stroke-width="2px" fill="#FFFFFF" fill-opacity="0.5" stroke="#1F77B4" marker-end="url(#arrow)"></path><text class="frame-label" x="480" y="-7" text-anchor="middle" font-size="12">Hello Packet</text><text class="timestamp" x="10" y="4" font-size="9px" text-anchor="start">129.972000</text></g><g class="packet" transform="translate(0,2071.3492063492063)"><rect width="560" height="50" x="760" y="-25" fill="#FFFFFF" opacity="0.1" stroke="none"></rect><path class="link arrow" d="M1320,0 L760,0" stroke-width="2px" fill="#FFFFFF" fill-opacity="0.5" stroke="#1F77B4" marker-end="url(#arrow)"></path><text class="frame-label" x="1040" y="-7" text-anchor="middle" font-size="12">Hello Packet</text><text class="timestamp" x="10" y="4" font-size="9px" text-anchor="start">130.727000</text></g><g class="packet" transform="translate(0,2121.5079365079364)"><rect width="560" height="50" x="200" y="-25" fill="#FFFFFF" opacity="0.1" stroke="none"></rect><path class="link arrow" d="M200,0 L760,0" stroke-width="2px" fill="#FFFFFF" fill-opacity="0.5" stroke="#1F77B4" marker-end="url(#arrow)"></path><text class="frame-label" x="480" y="-7" text-anchor="middle" font-size="12">Hello Packet</text><text class="timestamp" x="10" y="4" font-size="9px" text-anchor="start">139.984000</text></g><g class="packet" transform="translate(0,2171.6666666666665)"><rect width="560" height="50" x="760" y="-25" fill="#FFFFFF" opacity="0.1" stroke="none"></rect><path class="link arrow" d="M1320,0 L760,0" stroke-width="2px" fill="#FFFFFF" fill-opacity="0.5" stroke="#1F77B4" marker-end="url(#arrow)"></path><text class="frame-label" x="1040" y="-7" text-anchor="middle" font-size="12">Hello Packet</text><text class="timestamp" x="10" y="4" font-size="9px" text-anchor="start">140.742000</text></g><g class="packet" transform="translate(0,2221.8253968253966)"><rect width="560" height="50" x="200" y="-25" fill="#FFFFFF" opacity="0.1" stroke="none"></rect><path class="link arrow" d="M200,0 L760,0" stroke-width="2px" fill="#FFFFFF" fill-opacity="0.5" stroke="#1F77B4" marker-end="url(#arrow)"></path><text class="frame-label" x="480" y="-7" text-anchor="middle" font-size="12">Hello Packet</text><text class="timestamp" x="10" y="4" font-size="9px" text-anchor="start">149.992000</text></g><g class="packet" transform="translate(0,2271.9841269841268)"><rect width="560" height="50" x="760" y="-25" fill="#FFFFFF" opacity="0.1" stroke="none"></rect><path class="link arrow" d="M1320,0 L760,0" stroke-width="2px" fill="#FFFFFF" fill-opacity="0.5" stroke="#1F77B4" marker-end="url(#arrow)"></path><text class="frame-label" x="1040" y="-7" text-anchor="middle" font-size="12">Hello Packet</text><text class="timestamp" x="10" y="4" font-size="9px" text-anchor="start">150.715000</text></g><g class="packet" transform="translate(0,2322.142857142857)"><rect width="560" height="50" x="200" y="-25" fill="#FFFFFF" opacity="0.1" stroke="none"></rect><path class="link arrow" d="M200,0 L760,0" stroke-width="2px" fill="#FFFFFF" fill-opacity="0.5" stroke="#1F77B4" marker-end="url(#arrow)"></path><text class="frame-label" x="480" y="-7" text-anchor="middle" font-size="12">Hello Packet</text><text class="timestamp" x="10" y="4" font-size="9px" text-anchor="start">159.982000</text></g><g class="packet" transform="translate(0,2372.301587301587)"><rect width="560" height="50" x="760" y="-25" fill="#FFFFFF" opacity="0.1" stroke="none"></rect><path class="link arrow" d="M1320,0 L760,0" stroke-width="2px" fill="#FFFFFF" fill-opacity="0.5" stroke="#1F77B4" marker-end="url(#arrow)"></path><text class="frame-label" x="1040" y="-7" text-anchor="middle" font-size="12">Hello Packet</text><text class="timestamp" x="10" y="4" font-size="9px" text-anchor="start">160.739000</text></g><g class="packet" transform="translate(0,2422.4603174603176)"><rect width="560" height="50" x="200" y="-25" fill="#FFFFFF" opacity="0.1" stroke="none"></rect><path class="link arrow" d="M200,0 L760,0" stroke-width="2px" fill="#FFFFFF" fill-opacity="0.5" stroke="#1F77B4" marker-end="url(#arrow)"></path><text class="frame-label" x="480" y="-7" text-anchor="middle" font-size="12">Hello Packet</text><text class="timestamp" x="10" y="4" font-size="9px" text-anchor="start">170.020000</text></g><g class="packet" transform="translate(0,2472.6190476190473)"><rect width="560" height="50" x="760" y="-25" fill="#FFFFFF" opacity="0.1" stroke="none"></rect><path class="link arrow" d="M1320,0 L760,0" stroke-width="2px" fill="#FFFFFF" fill-opacity="0.5" stroke="#1F77B4" marker-end="url(#arrow)"></path><text class="frame-label" x="1040" y="-7" text-anchor="middle" font-size="12">Hello Packet</text><text class="timestamp" x="10" y="4" font-size="9px" text-anchor="start">170.749000</text></g><g class="packet" transform="translate(0,2522.777777777778)"><rect width="560" height="50" x="200" y="-25" fill="#FFFFFF" opacity="0.1" stroke="none"></rect><path class="link arrow" d="M200,0 L760,0" stroke-width="2px" fill="#FFFFFF" fill-opacity="0.5" stroke="#1F77B4" marker-end="url(#arrow)"></path><text class="frame-label" x="480" y="-7" text-anchor="middle" font-size="12">Hello Packet</text><text class="timestamp" x="10" y="4" font-size="9px" text-anchor="start">179.963000</text></g><g class="packet" transform="translate(0,2572.9365079365075)"><rect width="560" height="50" x="760" y="-25" fill="#FFFFFF" opacity="0.1" stroke="none"></rect><path class="link arrow" d="M1320,0 L760,0" stroke-width="2px" fill="#FFFFFF" fill-opacity="0.5" stroke="#1F77B4" marker-end="url(#arrow)"></path><text class="frame-label" x="1040" y="-7" text-anchor="middle" font-size="12">Hello Packet</text><text class="timestamp" x="10" y="4" font-size="9px" text-anchor="start">180.714000</text></g><g class="packet" transform="translate(0,2623.095238095238)"><rect width="560" height="50" x="200" y="-25" fill="#FFFFFF" opacity="0.1" stroke="none"></rect><path class="link arrow" d="M200,0 L760,0" stroke-width="2px" fill="#FFFFFF" fill-opacity="0.5" stroke="#1F77B4" marker-end="url(#arrow)"></path><text class="frame-label" x="480" y="-7" text-anchor="middle" font-size="12">Hello Packet</text><text class="timestamp" x="10" y="4" font-size="9px" text-anchor="start">189.976000</text></g><g class="packet" transform="translate(0,2673.253968253968)"><rect width="560" height="50" x="760" y="-25" fill="#FFFFFF" opacity="0.1" stroke="none"></rect><path class="link arrow" d="M1320,0 L760,0" stroke-width="2px" fill="#FFFFFF" fill-opacity="0.5" stroke="#1F77B4" marker-end="url(#arrow)"></path><text class="frame-label" x="1040" y="-7" text-anchor="middle" font-size="12">Hello Packet</text><text class="timestamp" x="10" y="4" font-size="9px" text-anchor="start">190.744000</text></g><g class="packet" transform="translate(0,2723.4126984126983)"><rect width="560" height="50" x="200" y="-25" fill="#FFFFFF" opacity="0.1" stroke="none"></rect><path class="link arrow" d="M200,0 L760,0" stroke-width="2px" fill="#FFFFFF" fill-opacity="0.5" stroke="#1F77B4" marker-end="url(#arrow)"></path><text class="frame-label" x="480" y="-7" text-anchor="middle" font-size="12">Hello Packet</text><text class="timestamp" x="10" y="4" font-size="9px" text-anchor="start">199.963000</text></g><g class="packet" transform="translate(0,2773.5714285714284)"><rect width="560" height="50" x="760" y="-25" fill="#FFFFFF" opacity="0.1" stroke="none"></rect><path class="link arrow" d="M1320,0 L760,0" stroke-width="2px" fill="#FFFFFF" fill-opacity="0.5" stroke="#1F77B4" marker-end="url(#arrow)"></path><text class="frame-label" x="1040" y="-7" text-anchor="middle" font-size="12">Hello Packet</text><text class="timestamp" x="10" y="4" font-size="9px" text-anchor="start">200.734000</text></g><g class="packet" transform="translate(0,2823.7301587301586)"><rect width="560" height="50" x="200" y="-25" fill="#FFFFFF" opacity="0.1" stroke="none"></rect><path class="link arrow" d="M200,0 L760,0" stroke-width="2px" fill="#FFFFFF" fill-opacity="0.5" stroke="#1F77B4" marker-end="url(#arrow)"></path><text class="frame-label" x="480" y="-7" text-anchor="middle" font-size="12">Hello Packet</text><text class="timestamp" x="10" y="4" font-size="9px" text-anchor="start">210.025000</text></g><g class="packet" transform="translate(0,2873.8888888888887)"><rect width="560" height="50" x="760" y="-25" fill="#FFFFFF" opacity="0.1" stroke="none"></rect><path class="link arrow" d="M1320,0 L760,0" stroke-width="2px" fill="#FFFFFF" fill-opacity="0.5" stroke="#1F77B4" marker-end="url(#arrow)"></path><text class="frame-label" x="1040" y="-7" text-anchor="middle" font-size="12">Hello Packet</text><text class="timestamp" x="10" y="4" font-size="9px" text-anchor="start">210.703000</text></g><g class="packet" transform="translate(0,2924.047619047619)"><rect width="560" height="50" x="200" y="-25" fill="#FFFFFF" opacity="0.1" stroke="none"></rect><path class="link arrow" d="M200,0 L760,0" stroke-width="2px" fill="#FFFFFF" fill-opacity="0.5" stroke="#1F77B4" marker-end="url(#arrow)"></path><text class="frame-label" x="480" y="-7" text-anchor="middle" font-size="12">Hello Packet</text><text class="timestamp" x="10" y="4" font-size="9px" text-anchor="start">219.973000</text></g><g class="packet" transform="translate(0,2974.206349206349)"><rect width="560" height="50" x="760" y="-25" fill="#FFFFFF" opacity="0.1" stroke="none"></rect><path class="link arrow" d="M1320,0 L760,0" stroke-width="2px" fill="#FFFFFF" fill-opacity="0.5" stroke="#1F77B4" marker-end="url(#arrow)"></path><text class="frame-label" x="1040" y="-7" text-anchor="middle" font-size="12">Hello Packet</text><text class="timestamp" x="10" y="4" font-size="9px" text-anchor="start">220.710000</text></g><g class="packet" transform="translate(0,3024.3650793650795)"><rect width="560" height="50" x="200" y="-25" fill="#FFFFFF" opacity="0.1" stroke="none"></rect><path class="link arrow" d="M200,0 L760,0" stroke-width="2px" fill="#FFFFFF" fill-opacity="0.5" stroke="#1F77B4" marker-end="url(#arrow)"></path><text class="frame-label" x="480" y="-7" text-anchor="middle" font-size="12">Hello Packet</text><text class="timestamp" x="10" y="4" font-size="9px" text-anchor="start">229.972000</text></g><g class="packet" transform="translate(0,3074.523809523809)"><rect width="560" height="50" x="760" y="-25" fill="#FFFFFF" opacity="0.1" stroke="none"></rect><path class="link arrow" d="M1320,0 L760,0" stroke-width="2px" fill="#FFFFFF" fill-opacity="0.5" stroke="#1F77B4" marker-end="url(#arrow)"></path><text class="frame-label" x="1040" y="-7" text-anchor="middle" font-size="12">Hello Packet</text><text class="timestamp" x="10" y="4" font-size="9px" text-anchor="start">230.743000</text></g><g class="packet" transform="translate(0,3124.6825396825398)"><rect width="560" height="50" x="200" y="-25" fill="#FFFFFF" opacity="0.1" stroke="none"></rect><path class="link arrow" d="M200,0 L760,0" stroke-width="2px" fill="#FFFFFF" fill-opacity="0.5" stroke="#1F77B4" marker-end="url(#arrow)"></path><text class="frame-label" x="480" y="-7" text-anchor="middle" font-size="12">Hello Packet</text><text class="timestamp" x="10" y="4" font-size="9px" text-anchor="start">239.974000</text></g><g class="packet" transform="translate(0,3174.84126984127)"><rect width="560" height="50" x="760" y="-25" fill="#FFFFFF" opacity="0.1" stroke="none"></rect><path class="link arrow" d="M1320,0 L760,0" stroke-width="2px" fill="#FFFFFF" fill-opacity="0.5" stroke="#1F77B4" marker-end="url(#arrow)"></path><text class="frame-label" x="1040" y="-7" text-anchor="middle" font-size="12">Hello Packet</text><text class="timestamp" x="10" y="4" font-size="9px" text-anchor="start">240.747000</text></g></svg>