<svg xmlns:xlink="http://www.w3.org/1999/xlink" xmlns="http://www.w3.org/2000/svg" id="svg" height="1600" width="1470">
        <defs><marker id="arrow" refX="11" refY="6" markerWidth="13" markerHeight="13" stroke="none" orient="auto" markerUnits="userSpaceOnUse"><path d="M2,2 L2,11 L10,6 L2,2"></path></marker></defs>
      <g class="node" transform="translate(200,20)" id="line_0"><line x1="0" y1="0" x2="0" y2="1600" stroke="#AAAAAA"></line></g><g class="node" transform="translate(760,20)" id="line_1"><line x1="0" y1="0" x2="0" y2="1600" stroke="#AAAAAA"></line></g><g class="node" transform="translate(1320,20)" id="line_2"><line x1="0" y1="0" x2="0" y2="1600" stroke="#AAAAAA"></line></g><g class="packet" transform="translate(0,65)"><rect width="560" height="50" x="200" y="-25" fill="#FFFFFF" opacity="0.1" stroke="none"></rect><path class="link arrow" d="M200,0 L760,0" stroke-width="2px" fill="#FFFFFF" fill-opacity="0.5" stroke="#1F77B4" marker-end="url(#arrow)"></path><text class="frame-label" x="480" y="-7" text-anchor="middle" font-size="12">Hello Packet</text><text class="timestamp" x="10" y="4" font-size="9px" text-anchor="start">0.000000</text></g><g class="packet" transform="translate(0,115.33333333333334)"><rect width="560" height="50" x="200" y="-25" fill="#FFFFFF" opacity="0.1" stroke="none"></rect><path class="link arrow" d="M200,0 L760,0" stroke-width="2px" fill="#FFFFFF" fill-opacity="0.5" stroke="#1F77B4" marker-end="url(#arrow)"></path><text class="frame-label" x="480" y="-7" text-anchor="middle" font-size="12">Hello Packet</text><text class="timestamp" x="10" y="4" font-size="9px" text-anchor="start">9.968640</text></g><g class="packet" transform="translate(0,165.66666666666666)"><rect width="560" height="50" x="200" y="-25" fill="#FFFFFF" opacity="0.1" stroke="none"></rect><path class="link arrow" d="M200,0 L760,0" stroke-width="2px" fill="#FFFFFF" fill-opacity="0.5" stroke="#1F77B4" marker-end="url(#arrow)"></path><text class="frame-label" x="480" y="-7" text-anchor="middle" font-size="12">Hello Packet</text><text class="timestamp" x="10" y="4" font-size="9px" text-anchor="start">19.993215</text></g><g class="packet" transform="translate(0,216)"><rect width="560" height="50" x="760" y="-25" fill="#FFFFFF" opacity="0.1" stroke="none"></rect><path class="link arrow" d="M1320,0 L760,0" stroke-width="2px" fill="#FFFFFF" fill-opacity="0.5" stroke="#1F77B4" marker-end="url(#arrow)"></path><text class="frame-label" x="1040" y="-7" text-anchor="middle" font-size="12">Hello Packet</text><text class="timestamp" x="10" y="4" font-size="9px" text-anchor="start">22.935969</text></g><g class="packet" transform="translate(0,266.3333333333333)"><rect width="560" height="50" x="200" y="-25" fill="#FFFFFF" opacity="0.1" stroke="none"></rect><path class="link arrow" d="M200,0 L760,0" stroke-width="2px" fill="#FFFFFF" fill-opacity="0.5" stroke="#1F77B4" marker-end="url(#arrow)"></path><text class="frame-label" x="480" y="-7" text-anchor="middle" font-size="12">Hello Packet</text><text class="timestamp" x="10" y="4" font-size="9px" text-anchor="start">29.981842</text></g><g class="packet" transform="translate(0,316.6666666666667)"><rect width="560" height="50" x="760" y="-25" fill="#FFFFFF" opacity="0.1" stroke="none"></rect><path class="link arrow" d="M1320,0 L760,0" stroke-width="2px" fill="#FFFFFF" fill-opacity="0.5" stroke="#1F77B4" marker-end="url(#arrow)"></path><text class="frame-label" x="1040" y="-7" text-anchor="middle" font-size="12">Hello Packet</text><text class="timestamp" x="10" y="4" font-size="9px" text-anchor="start">32.930069</text></g><g class="packet" transform="translate(0,367)"><rect width="1120" height="50" x="200" y="-25" fill="#FFFFFF" opacity="0.1" stroke="none"></rect><path class="link arrow" d="M200,0 L1320,0" stroke-width="2px" fill="#FFFFFF" fill-opacity="0.5" stroke="#1F77B4" marker-end="url(#arrow)"></path><text class="frame-label" x="760" y="-7" text-anchor="middle" font-size="12">DB Description</text><text class="timestamp" x="10" y="4" font-size="9px" text-anchor="start">32.934033</text></g><g class="packet" transform="translate(0,417.3333333333333)"><rect width="1120" height="50" x="200" y="-25" fill="#FFFFFF" opacity="0.1" stroke="none"></rect><path class="link arrow" d="M1320,0 L200,0" stroke-width="2px" fill="#FFFFFF" fill-opacity="0.5" stroke="#1F77B4" marker-end="url(#arrow)"></path><text class="frame-label" x="760" y="-7" text-anchor="middle" font-size="12">DB Description</text><text class="timestamp" x="10" y="4" font-size="9px" text-anchor="start">32.938125</text></g><g class="packet" transform="translate(0,467.6666666666667)"><rect width="1120" height="50" x="200" y="-25" fill="#FFFFFF" opacity="0.1" stroke="none"></rect><path class="link arrow" d="M200,0 L1320,0" stroke-width="2px" fill="#FFFFFF" fill-opacity="0.5" stroke="#1F77B4" marker-end="url(#arrow)"></path><text class="frame-label" x="760" y="-7" text-anchor="middle" font-size="12">DB Description</text><text class="timestamp" x="10" y="4" font-size="9px" text-anchor="start">32.942045</text></g><g class="packet" transform="translate(0,518)"><rect width="1120" height="50" x="200" y="-25" fill="#FFFFFF" opacity="0.1" stroke="none"></rect><path class="link arrow" d="M1320,0 L200,0" stroke-width="2px" fill="#FFFFFF" fill-opacity="0.5" stroke="#1F77B4" marker-end="url(#arrow)"></path><text class="frame-label" x="760" y="-7" text-anchor="middle" font-size="12">DB Description</text><text class="timestamp" x="10" y="4" font-size="9px" text-anchor="start">32.946075</text></g><g class="packet" transform="translate(0,568.3333333333334)"><rect width="1120" height="50" x="200" y="-25" fill="#FFFFFF" opacity="0.1" stroke="none"></rect><path class="link arrow" d="M200,0 L1320,0" stroke-width="2px" fill="#FFFFFF" fill-opacity="0.5" stroke="#1F77B4" marker-end="url(#arrow)"></path><text class="frame-label" x="760" y="-7" text-anchor="middle" font-size="12">LS Request</text><text class="timestamp" x="10" y="4" font-size="9px" text-anchor="start">32.950034</text></g><g class="packet" transform="translate(0,618.6666666666666)"><rect width="1120" height="50" x="200" y="-25" fill="#FFFFFF" opacity="0.1" stroke="none"></rect><path class="link arrow" d="M1320,0 L200,0" stroke-width="2px" fill="#FFFFFF" fill-opacity="0.5" stroke="#1F77B4" marker-end="url(#arrow)"></path><text class="frame-label" x="760" y="-7" text-anchor="middle" font-size="12">LS Update</text><text class="timestamp" x="10" y="4" font-size="9px" text-anchor="start">32.954068</text></g><g class="packet" transform="translate(0,669)"><rect width="1120" height="50" x="200" y="-25" fill="#FFFFFF" opacity="0.1" stroke="none"></rect><path class="link arrow" d="M200,0 L1320,0" stroke-width="2px" fill="#FFFFFF" fill-opacity="0.5" stroke="#1F77B4" marker-end="url(#arrow)"></path><text class="frame-label" x="760" y="-7" text-anchor="middle" font-size="12">DB Description</text><text class="timestamp" x="10" y="4" font-size="9px" text-anchor="start">32.958044</text></g><g class="packet" transform="translate(0,719.3333333333334)"><rect width="1120" height="50" x="200" y="-25" fill="#FFFFFF" opacity="0.1" stroke="none"></rect><path class="link arrow" d="M1320,0 L200,0" stroke-width="2px" fill="#FFFFFF" fill-opacity="0.5" stroke="#1F77B4" marker-end="url(#arrow)"></path><text class="frame-label" x="760" y="-7" text-anchor="middle" font-size="12">DB Description</text><text class="timestamp" x="10" y="4" font-size="9px" text-anchor="start">32.962080</text></g><g class="packet" transform="translate(0,769.6666666666666)"><rect width="560" height="50" x="200" y="-25" fill="#FFFFFF" opacity="0.1" stroke="none"></rect><path class="link arrow" d="M200,0 L760,0" stroke-width="2px" fill="#FFFFFF" fill-opacity="0.5" stroke="#1F77B4" marker-end="url(#arrow)"></path><text class="frame-label" x="480" y="-7" text-anchor="middle" font-size="12">LS Update</text><text class="timestamp" x="10" y="4" font-size="9px" text-anchor="start">32.966036</text></g><g class="packet" transform="translate(0,820)"><rect width="560" height="50" x="200" y="-25" fill="#FFFFFF" opacity="0.1" stroke="none"></rect><path class="link arrow" d="M200,0 L760,0" stroke-width="2px" fill="#FFFFFF" fill-opacity="0.5" stroke="#1F77B4" marker-end="url(#arrow)"></path><text class="frame-label" x="480" y="-7" text-anchor="middle" font-size="12">LS Update</text><text class="timestamp" x="10" y="4" font-size="9px" text-anchor="start">33.014028</text></g><g class="packet" transform="translate(0,870.3333333333334)"><rect width="560" height="50" x="760" y="-25" fill="#FFFFFF" opacity="0.1" stroke="none"></rect><path class="link arrow" d="M1320,0 L760,0" stroke-width="2px" fill="#FFFFFF" fill-opacity="0.5" stroke="#1F77B4" marker-end="url(#arrow)"></path><text class="frame-label" x="1040" y="-7" text-anchor="middle" font-size="12">LS Update</text><text class="timestamp" x="10" y="4" font-size="9px" text-anchor="start">33.506096</text></g><g class="packet" transform="translate(0,920.6666666666666)"><rect width="560" height="50" x="200" y="-25" fill="#FFFFFF" opacity="0.1" stroke="none"></rect><path class="link arrow" d="M200,0 L760,0" stroke-width="2px" fill="#FFFFFF" fill-opacity="0.5" stroke="#1F77B4" marker-end="url(#arrow)"></path><text class="frame-label" x="480" y="-7" text-anchor="middle" font-size="12">LS Acknowledge</text><text class="timestamp" x="10" y="4" font-size="9px" text-anchor="start">35.462172</text></g><g class="packet" transform="translate(0,971)"><rect width="560" height="50" x="760" y="-25" fill="#FFFFFF" opacity="0.1" stroke="none"></rect><path class="link arrow" d="M1320,0 L760,0" stroke-width="2px" fill="#FFFFFF" fill-opacity="0.5" stroke="#1F77B4" marker-end="url(#arrow)"></path><text class="frame-label" x="1040" y="-7" text-anchor="middle" font-size="12">LS Acknowledge</text><text class="timestamp" x="10" y="4" font-size="9px" text-anchor="start">35.474214</text></g><g class="packet" transform="translate(0,1021.3333333333334)"><rect width="560" height="50" x="200" y="-25" fill="#FFFFFF" opacity="0.1" stroke="none"></rect><path class="link arrow" d="M200,0 L760,0" stroke-width="2px" fill="#FFFFFF" fill-opacity="0.5" stroke="#1F77B4" marker-end="url(#arrow)"></path><text class="frame-label" x="480" y="-7" text-anchor="middle" font-size="12">LS Update</text><text class="timestamp" x="10" y="4" font-size="9px" text-anchor="start">37.958332</text></g><g class="packet" transform="translate(0,1071.6666666666667)"><rect width="560" height="50" x="200" y="-25" fill="#FFFFFF" opacity="0.1" stroke="none"></rect><path class="link arrow" d="M200,0 L760,0" stroke-width="2px" fill="#FFFFFF" fill-opacity="0.5" stroke="#1F77B4" marker-end="url(#arrow)"></path><text class="frame-label" x="480" y="-7" text-anchor="middle" font-size="12">LS Update</text><text class="timestamp" x="10" y="4" font-size="9px" text-anchor="start">38.006331</text></g><g class="packet" transform="translate(0,1122)"><rect width="1120" height="50" x="200" y="-25" fill="#FFFFFF" opacity="0.1" stroke="none"></rect><path class="link arrow" d="M1320,0 L200,0" stroke-width="2px" fill="#FFFFFF" fill-opacity="0.5" stroke="#1F77B4" marker-end="url(#arrow)"></path><text class="frame-label" x="760" y="-7" text-anchor="middle" font-size="12">LS Update</text><text class="timestamp" x="10" y="4" font-size="9px" text-anchor="start">38.394379</text></g><g class="packet" transform="translate(0,1172.3333333333333)"><rect width="560" height="50" x="200" y="-25" fill="#FFFFFF" opacity="0.1" stroke="none"></rect><path class="link arrow" d="M200,0 L760,0" stroke-width="2px" fill="#FFFFFF" fill-opacity="0.5" stroke="#1F77B4" marker-end="url(#arrow)"></path><text class="frame-label" x="480" y="-7" text-anchor="middle" font-size="12">Hello Packet</text><text class="timestamp" x="10" y="4" font-size="9px" text-anchor="start">39.980898</text></g><g class="packet" transform="translate(0,1222.6666666666667)"><rect width="560" height="50" x="760" y="-25" fill="#FFFFFF" opacity="0.1" stroke="none"></rect><path class="link arrow" d="M1320,0 L760,0" stroke-width="2px" fill="#FFFFFF" fill-opacity="0.5" stroke="#1F77B4" marker-end="url(#arrow)"></path><text class="frame-label" x="1040" y="-7" text-anchor="middle" font-size="12">LS Acknowledge</text><text class="timestamp" x="10" y="4" font-size="9px" text-anchor="start">40.466540</text></g><g class="packet" transform="translate(0,1273)"><rect width="560" height="50" x="200" y="-25" fill="#FFFFFF" opacity="0.1" stroke="none"></rect><path class="link arrow" d="M200,0 L760,0" stroke-width="2px" fill="#FFFFFF" fill-opacity="0.5" stroke="#1F77B4" marker-end="url(#arrow)"></path><text class="frame-label" x="480" y="-7" text-anchor="middle" font-size="12">LS Acknowledge</text><text class="timestamp" x="10" y="4" font-size="9px" text-anchor="start">40.898521</text></g><g class="packet" transform="translate(0,1323.3333333333333)"><rect width="560" height="50" x="760" y="-25" fill="#FFFFFF" opacity="0.1" stroke="none"></rect><path class="link arrow" d="M1320,0 L760,0" stroke-width="2px" fill="#FFFFFF" fill-opacity="0.5" stroke="#1F77B4" marker-end="url(#arrow)"></path><text class="frame-label" x="1040" y="-7" text-anchor="middle" font-size="12">Hello Packet</text><text class="timestamp" x="10" y="4" font-size="9px" text-anchor="start">42.898697</text></g><g class="packet" transform="translate(0,1373.6666666666667)"><rect width="560" height="50" x="200" y="-25" fill="#FFFFFF" opacity="0.1" stroke="none"></rect><path class="link arrow" d="M200,0 L760,0" stroke-width="2px" fill="#FFFFFF" fill-opacity="0.5" stroke="#1F77B4" marker-end="url(#arrow)"></path><text class="frame-label" x="480" y="-7" text-anchor="middle" font-size="12">Hello Packet</text><text class="timestamp" x="10" y="4" font-size="9px" text-anchor="start">49.979064</text></g><g class="packet" transform="translate(0,1424)"><rect width="560" height="50" x="760" y="-25" fill="#FFFFFF" opacity="0.1" stroke="none"></rect><path class="link arrow" d="M1320,0 L760,0" stroke-width="2px" fill="#FFFFFF" fill-opacity="0.5" stroke="#1F77B4" marker-end="url(#arrow)"></path><text class="frame-label" x="1040" y="-7" text-anchor="middle" font-size="12">Hello Packet</text><text class="timestamp" x="10" y="4" font-size="9px" text-anchor="start">52.917675</text></g><g class="packet" transform="translate(0,1474.3333333333333)"><rect width="560" height="50" x="200" y="-25" fill="#FFFFFF" opacity="0.1" stroke="none"></rect><path class="link arrow" d="M200,0 L760,0" stroke-width="2px" fill="#FFFFFF" fill-opacity="0.5" stroke="#1F77B4" marker-end="url(#arrow)"></path><text class="frame-label" x="480" y="-7" text-anchor="middle" font-size="12">Hello Packet</text><text class="timestamp" x="10" y="4" font-size="9px" text-anchor="start">60.003656</text></g><g class="packet" transform="translate(0,1524.6666666666667)"><rect width="560" height="50" x="760" y="-25" fill="#FFFFFF" opacity="0.1" stroke="none"></rect><path class="link arrow" d="M1320,0 L760,0" stroke-width="2px" fill="#FFFFFF" fill-opacity="0.5" stroke="#1F77B4" marker-end="url(#arrow)"></path><text class="frame-label" x="1040" y="-7" text-anchor="middle" font-size="12">Hello Packet</text><text class="timestamp" x="10" y="4" font-size="9px" text-anchor="start">62.918273</text></g></svg>